<svg width="42" height="14" viewBox="0 0 42 14" fill="none" xmlns="http://www.w3.org/2000/svg">
<g opacity="0.5">
<g opacity="0.5">
<path opacity="0.5" d="M0.699707 0.523682H2.69971C3.09971 0.523682 3.39967 0.523682 3.59967 0.523682C3.79967 0.523682 3.99967 0.623682 4.09967 0.723682C4.29967 0.823682 4.39969 0.923682 4.49969 1.12368C4.59969 1.32368 4.69971 1.52368 4.69971 1.72368C4.69971 1.92368 4.59969 2.12368 4.49969 2.32368C4.39969 2.52368 4.19969 2.62368 3.99969 2.72368C4.29969 2.82368 4.49971 2.92368 4.69971 3.12368C4.89971 3.32368 4.89972 3.52368 4.89972 3.82368C4.89972 4.02368 4.79971 4.22368 4.69971 4.42368C4.59971 4.62368 4.49968 4.82368 4.29968 4.92368C4.09968 5.02368 3.89967 5.12368 3.59967 5.12368C3.39967 5.12368 2.99972 5.12368 2.39972 5.12368H0.699707V0.523682ZM1.69971 1.32368V2.42368H2.29968C2.69968 2.42368 2.89969 2.42368 2.99969 2.42368C3.19969 2.42368 3.29972 2.32368 3.39972 2.22368C3.49972 2.12368 3.49969 2.02368 3.49969 1.82368C3.49969 1.72368 3.49972 1.52368 3.39972 1.42368C3.29972 1.32368 3.19969 1.32368 2.99969 1.22368C2.89969 1.22368 2.59971 1.22368 2.19971 1.22368H1.69971V1.32368ZM1.69971 3.22368V4.52368H2.59967C2.99967 4.52368 3.19968 4.52368 3.29968 4.52368C3.39968 4.52368 3.59971 4.42368 3.69971 4.32368C3.79971 4.22368 3.79968 4.12368 3.79968 3.92368C3.79968 3.82368 3.79971 3.62368 3.69971 3.52368C3.59971 3.42368 3.49972 3.32368 3.39972 3.32368C3.29972 3.32368 2.99969 3.22368 2.49969 3.22368H1.69971Z" fill="black"/>
<path opacity="0.5" d="M6.59961 0.523682H5.59961V5.32368H6.59961V0.523682Z" fill="black"/>
<path opacity="0.5" d="M9.7998 3.52371V2.72371H11.8998V4.62371C11.6998 4.82371 11.3998 5.02371 10.9998 5.12371C10.5998 5.22371 10.1998 5.32371 9.7998 5.32371C9.2998 5.32371 8.79982 5.22371 8.49982 5.02371C8.09982 4.82371 7.79979 4.52371 7.59979 4.12371C7.39979 3.72371 7.2998 3.32371 7.2998 2.82371C7.2998 2.32371 7.39979 1.92371 7.59979 1.52371C7.79979 1.12371 8.09982 0.823707 8.49982 0.623707C8.79982 0.423707 9.19983 0.423706 9.69983 0.423706C10.2998 0.423706 10.7998 0.523708 11.0998 0.823708C11.3998 1.02371 11.6998 1.42371 11.7998 1.82371L10.7998 2.02371C10.6998 1.82371 10.5998 1.62371 10.3998 1.42371C10.1998 1.32371 9.99983 1.22371 9.69983 1.22371C9.29983 1.22371 8.89983 1.32371 8.69983 1.62371C8.39983 1.92371 8.2998 2.32371 8.2998 2.82371C8.2998 3.42371 8.39983 3.82371 8.69983 4.12371C8.99983 4.42371 9.29983 4.52371 9.69983 4.52371C9.89983 4.52371 10.0998 4.52371 10.2998 4.42371C10.4998 4.32371 10.6998 4.22371 10.7998 4.12371V3.52371H9.7998Z" fill="black"/>
<path opacity="0.5" d="M16.3997 6.72371H15.7997C15.4997 6.22371 15.1997 5.72371 14.9997 5.12371C14.7997 4.62371 14.6997 4.02371 14.6997 3.52371C14.6997 2.92371 14.7997 2.32371 14.9997 1.72371C15.1997 1.22371 15.3997 0.823706 15.6997 0.423706H16.2997C15.9997 1.12371 15.7997 1.62371 15.6997 2.12371C15.5997 2.62371 15.4997 3.12371 15.4997 3.62371C15.4997 4.02371 15.4997 4.32371 15.5997 4.72371C15.6997 5.12371 15.7997 5.42371 15.8997 5.82371C15.9997 5.92371 16.1997 6.22371 16.3997 6.72371Z" fill="black"/>
<path opacity="0.5" d="M19.2997 5.32368H18.3997V1.82368C18.0997 2.12368 17.6997 2.32368 17.1997 2.52368V1.72368C17.3997 1.62368 17.6997 1.52368 17.9997 1.32368C18.2997 1.12368 18.4997 0.823682 18.5997 0.523682H19.3997V5.32368H19.2997Z" fill="black"/>
<path opacity="0.5" d="M22.7998 5.32368V0.523682H24.3998C24.9998 0.523682 25.3998 0.523682 25.5998 0.623682C25.8998 0.723682 26.0998 0.823682 26.2998 1.12368C26.4998 1.32368 26.5998 1.72368 26.5998 2.02368C26.5998 2.32368 26.4998 2.52368 26.3998 2.72368C26.2998 2.92368 26.1998 3.12368 25.9998 3.22368C25.7998 3.32368 25.6998 3.42368 25.4998 3.42368C25.2998 3.42368 24.8998 3.52368 24.4998 3.52368H23.8998V5.32368H22.7998ZM23.7998 1.32368V2.62368H24.2998C24.6998 2.62368 24.9998 2.62368 25.0998 2.52368C25.1998 2.42368 25.2998 2.42368 25.3998 2.32368C25.4998 2.22368 25.4998 2.12368 25.4998 1.92368C25.4998 1.72368 25.3998 1.62368 25.2998 1.52368C25.1998 1.42368 25.0998 1.32368 24.8998 1.32368C24.7998 1.32368 24.4998 1.32368 24.1998 1.32368H23.7998Z" fill="black"/>
<path opacity="0.5" d="M28.0995 2.82373L27.1995 2.72373C27.2995 2.42373 27.4995 2.12373 27.6995 2.02373C27.8995 1.82373 28.2995 1.82373 28.6995 1.82373C29.0995 1.82373 29.3995 1.82373 29.5995 1.92373C29.7995 2.02373 29.8995 2.12373 29.9995 2.32373C30.0995 2.42373 30.0995 2.72373 30.0995 3.12373V4.22373C30.0995 4.52373 30.0995 4.72373 30.0995 4.92373C30.0995 5.02373 30.1995 5.22373 30.2995 5.42373H29.3995C29.3995 5.32373 29.2995 5.22373 29.2995 5.12373C29.2995 5.02373 29.2995 5.02373 29.2995 5.02373C29.0995 5.22373 28.9995 5.32373 28.7995 5.32373C28.5995 5.42373 28.3995 5.42373 28.1995 5.42373C27.7995 5.42373 27.4995 5.32373 27.2995 5.12373C27.0995 4.92373 26.9995 4.72373 26.9995 4.42373C26.9995 4.22373 26.9995 4.02373 27.0995 3.92373C27.1995 3.82373 27.2995 3.62373 27.4995 3.52373C27.6995 3.42373 27.8995 3.32373 28.1995 3.32373C28.5995 3.22373 28.8995 3.12373 29.0995 3.12373V3.02373C29.0995 2.82373 29.0995 2.72373 28.9995 2.62373C28.8995 2.52373 28.6995 2.52373 28.4995 2.52373C28.2995 2.52373 28.1995 2.52373 28.0995 2.62373C28.1995 2.62373 28.0995 2.72373 28.0995 2.82373ZM29.2995 3.62373C29.1995 3.62373 28.9995 3.72373 28.6995 3.72373C28.3995 3.82373 28.2995 3.82373 28.1995 3.92373C28.0995 4.02373 27.9995 4.12373 27.9995 4.22373C27.9995 4.32373 27.9995 4.42373 28.0995 4.52373C28.1995 4.62373 28.2995 4.62373 28.4995 4.62373C28.6995 4.62373 28.7995 4.52373 28.9995 4.42373C29.0995 4.32373 29.1995 4.22373 29.1995 4.12373C29.1995 4.02373 29.1995 3.92373 29.1995 3.72373V3.62373H29.2995Z" fill="black"/>
<path opacity="0.5" d="M30.6997 1.82373H31.6997L32.5997 4.32373L33.3997 1.82373H34.3997L33.0997 5.12373L32.8997 5.72373C32.7997 5.92373 32.6997 6.12373 32.6997 6.22373C32.5997 6.32373 32.4997 6.42373 32.3997 6.52373C32.2997 6.62373 32.1997 6.62373 31.9997 6.72373C31.7997 6.82373 31.6997 6.82373 31.4997 6.82373C31.2997 6.82373 31.0997 6.82373 30.9997 6.72373L30.8997 6.02373C30.9997 6.02373 31.1997 6.02373 31.2997 6.02373C31.4997 6.02373 31.6997 5.92373 31.7997 5.82373C31.8997 5.72373 31.9997 5.52373 31.9997 5.32373L30.6997 1.82373Z" fill="black"/>
<path opacity="0.5" d="M39.0995 5.32368H38.1995V1.82368C37.8995 2.12368 37.4995 2.32368 36.9995 2.52368V1.72368C37.1995 1.62368 37.4995 1.52368 37.7995 1.32368C38.0995 1.12368 38.2995 0.823682 38.3995 0.523682H39.1995V5.32368H39.0995Z" fill="black"/>
<path opacity="0.5" d="M40.3998 6.72371C40.5998 6.32371 40.6998 6.02371 40.7998 5.82371C40.8998 5.62371 40.8998 5.42371 40.9998 5.12371C41.0998 4.82371 41.0998 4.62371 41.0998 4.32371C41.0998 4.12371 41.0998 3.82371 41.0998 3.62371C41.0998 3.12371 40.9998 2.62371 40.8998 2.12371C40.7998 1.62371 40.5998 1.12371 40.2998 0.423706H40.8998C41.1998 0.923706 41.4998 1.42371 41.6998 1.92371C41.8998 2.42371 41.9998 3.02371 41.9998 3.52371C41.9998 4.02371 41.8998 4.42371 41.7998 5.02371C41.5998 5.62371 41.3998 6.22371 40.9998 6.72371H40.3998Z" fill="black"/>
<path opacity="0.5" d="M8.19952 10.1237L7.2995 10.2237C7.2995 10.0237 7.19949 9.92371 7.09949 9.82371C6.99949 9.72371 6.89952 9.72371 6.69952 9.72371C6.49952 9.72371 6.29952 9.82371 6.19952 10.0237C6.09952 10.2237 5.99954 10.5237 5.89954 11.1237C6.09954 10.8237 6.3995 10.7237 6.7995 10.7237C7.1995 10.7237 7.4995 10.8237 7.7995 11.1237C8.0995 11.4237 8.19952 11.8237 8.19952 12.2237C8.19952 12.7237 8.0995 13.1237 7.7995 13.4237C7.4995 13.7237 7.09952 13.8237 6.69952 13.8237C6.19952 13.8237 5.79951 13.6237 5.49951 13.2237C5.19951 12.8237 4.99951 12.2237 4.99951 11.4237C4.99951 10.5237 5.19951 9.92371 5.49951 9.52371C5.79951 9.12371 6.2995 8.92371 6.7995 8.92371C7.1995 8.92371 7.49952 9.02371 7.69952 9.22371C7.89952 9.42371 8.09952 9.72371 8.19952 10.1237ZM5.99951 12.1237C5.99951 12.4237 6.09952 12.6237 6.19952 12.8237C6.29952 13.0237 6.49952 13.0237 6.69952 13.0237C6.89952 13.0237 6.99949 12.9237 7.09949 12.8237C7.19949 12.7237 7.2995 12.4237 7.2995 12.1237C7.2995 11.8237 7.19949 11.6237 7.09949 11.4237C6.99949 11.3237 6.79949 11.2237 6.59949 11.2237C6.39949 11.2237 6.29949 11.3237 6.09949 11.4237C6.09949 11.6237 5.99951 11.8237 5.99951 12.1237Z" fill="black"/>
<path opacity="0.5" d="M12.5998 11.5237H10.7998V12.4237H12.5998V11.5237Z" fill="black"/>
<path opacity="0.5" d="M14.8999 9.82371V8.92371H18.0999V9.62371C17.7999 9.92371 17.5999 10.2237 17.2999 10.7237C16.9999 11.2237 16.7999 11.7237 16.6999 12.2237C16.5999 12.7237 16.4999 13.2237 16.4999 13.6237H15.5999C15.5999 12.9237 15.7999 12.3237 15.9999 11.6237C16.2999 10.9237 16.5999 10.3237 17.0999 9.82371H14.8999Z" fill="black"/>
<path opacity="0.5" d="M22.4997 11.5237H20.6997V12.4237H22.4997V11.5237Z" fill="black"/>
<path opacity="0.5" d="M25.5998 11.1237C25.3998 11.0237 25.1998 10.9237 25.0998 10.7237C24.9998 10.5237 24.8998 10.3237 24.8998 10.1237C24.8998 9.72371 24.9998 9.42371 25.2998 9.22371C25.5998 9.02371 25.8998 8.92371 26.3998 8.92371C26.8998 8.92371 27.1998 9.02371 27.4998 9.22371C27.7998 9.42371 27.8998 9.72371 27.8998 10.1237C27.8998 10.3237 27.7998 10.5237 27.6998 10.7237C27.5998 10.9237 27.3998 11.0237 27.1998 11.1237C27.4998 11.2237 27.6998 11.4237 27.7998 11.6237C27.8998 11.8237 27.9998 12.0237 27.9998 12.3237C27.9998 12.7237 27.8998 13.1237 27.5998 13.4237C27.2998 13.7237 26.8998 13.8237 26.3998 13.8237C25.9998 13.8237 25.5998 13.7237 25.2998 13.5237C24.8998 13.2237 24.7998 12.9237 24.7998 12.4237C24.7998 12.1237 24.8998 11.9237 24.9998 11.7237C25.0998 11.4237 25.2998 11.2237 25.5998 11.1237ZM25.6998 12.2237C25.6998 12.5237 25.7998 12.6237 25.8998 12.8237C25.9998 12.9237 26.1998 13.0237 26.3998 13.0237C26.5998 13.0237 26.7998 12.9237 26.8998 12.8237C26.9998 12.7237 27.0998 12.5237 27.0998 12.2237C27.0998 12.0237 26.9998 11.8237 26.8998 11.7237C26.7998 11.6237 26.5998 11.5237 26.3998 11.5237C26.1998 11.5237 25.9998 11.6237 25.8998 11.7237C25.6998 11.9237 25.6998 12.1237 25.6998 12.2237ZM25.7998 10.2237C25.7998 10.4237 25.8998 10.5237 25.9998 10.6237C26.0998 10.7237 26.1998 10.8237 26.3998 10.8237C26.5998 10.8237 26.6998 10.7237 26.7998 10.6237C26.8998 10.5237 26.9998 10.4237 26.9998 10.2237C26.9998 10.0237 26.8998 9.92371 26.7998 9.82371C26.6998 9.72371 26.5998 9.62371 26.3998 9.62371C26.1998 9.62371 26.0998 9.72371 25.9998 9.82371C25.8998 9.92371 25.7998 10.0237 25.7998 10.2237Z" fill="black"/>
<path opacity="0.5" d="M32.3997 11.5237H30.5996V12.4237H32.3997V11.5237Z" fill="black"/>
<path opacity="0.5" d="M34.6997 12.6237L35.5997 12.5237C35.5997 12.7237 35.6997 12.8237 35.7997 12.9237C35.8997 13.0237 35.9997 13.0237 36.1997 13.0237C36.3997 13.0237 36.5997 12.9237 36.6997 12.7237C36.7997 12.5237 36.8997 12.2237 36.9997 11.6237C36.7997 11.9237 36.4997 12.0237 36.0997 12.0237C35.6997 12.0237 35.3997 11.9237 35.0997 11.6237C34.7997 11.3237 34.6997 10.9237 34.6997 10.5237C34.6997 10.0237 34.7997 9.62371 35.0997 9.32371C35.3997 9.02371 35.7997 8.92371 36.1997 8.92371C36.6997 8.92371 37.0997 9.12371 37.3997 9.52371C37.6997 9.92371 37.8997 10.5237 37.8997 11.4237C37.8997 12.3237 37.6997 12.9237 37.3997 13.3237C37.0997 13.7237 36.5997 13.9237 36.0997 13.9237C35.6997 13.9237 35.3997 13.8237 35.1997 13.6237C34.8997 13.3237 34.7997 13.0237 34.6997 12.6237ZM36.7997 10.6237C36.7997 10.3237 36.6997 10.1237 36.5997 9.92371C36.4997 9.72371 36.2997 9.72371 36.0997 9.72371C35.8997 9.72371 35.7997 9.82371 35.6997 9.92371C35.5997 10.0237 35.4997 10.3237 35.4997 10.6237C35.4997 10.9237 35.5997 11.1237 35.6997 11.3237C35.7997 11.4237 35.9997 11.5237 36.1997 11.5237C36.3997 11.5237 36.4997 11.4237 36.6997 11.3237C36.7997 11.1237 36.7997 10.9237 36.7997 10.6237Z" fill="black"/>
</g>
</g>
</svg>
