<svg
    xmlns="http://www.w3.org/2000/svg"
    xmlns:xlink="http://www.w3.org/1999/xlink" viewBox="0 0 90 75">
    <defs>
        <style>.cls-1{isolation:isolate;}.cls-2{opacity:0.5;}.cls-2,.cls-31{mix-blend-mode:multiply;}.cls-3,.cls-33{fill:#00b9ed;}.cls-4{fill:#fff;}.cls-5{fill:#9a8408;}.cls-6{fill:url(#linear-gradient);}.cls-7{fill:url(#linear-gradient-2);}.cls-8{fill:url(#linear-gradient-3);}.cls-9{fill:url(#linear-gradient-4);}.cls-10{fill:url(#linear-gradient-5);}.cls-11{fill:url(#linear-gradient-6);}.cls-12{fill:#0099c3;}.cls-13{fill:url(#linear-gradient-7);}.cls-14{fill:url(#linear-gradient-8);}.cls-15{fill:url(#linear-gradient-9);}.cls-16{fill:url(#linear-gradient-10);}.cls-17{fill:url(#linear-gradient-11);}.cls-18{fill:url(#linear-gradient-12);}.cls-19{fill:url(#linear-gradient-13);}.cls-20{fill:url(#linear-gradient-14);}.cls-21{fill:url(#linear-gradient-15);}.cls-22{fill:url(#linear-gradient-16);}.cls-23{fill:url(#linear-gradient-17);}.cls-24{fill:url(#linear-gradient-18);}.cls-25{fill:url(#linear-gradient-19);}.cls-26{fill:url(#linear-gradient-20);}.cls-27{fill:url(#linear-gradient-21);}.cls-28{fill:url(#linear-gradient-22);}.cls-29{fill:url(#linear-gradient-23);}.cls-30{fill:url(#linear-gradient-24);}.cls-31{opacity:0.4;}.cls-32,.cls-33{font-size:17.99px;font-family:Impact;}</style>
        <linearGradient id="linear-gradient" x1="-463.35" y1="237.19" x2="-462.85" y2="237.19" gradientTransform="matrix(-47.08, -47.08, -47.08, 47.08, -10591.99, -32933.17)" gradientUnits="userSpaceOnUse">
            <stop offset="0" stop-color="#00e7eb"/>
            <stop offset="0.24" stop-color="#00d9e4"/>
            <stop offset="0.69" stop-color="#00b6d2"/>
            <stop offset="1" stop-color="#0099c3"/>
        </linearGradient>
        <linearGradient id="linear-gradient-2" x1="-440.85" y1="230.99" x2="-440.41" y2="230.99" gradientTransform="matrix(6.59, -3.02, -3.02, -6.59, 3614.4, 229.96)" gradientUnits="userSpaceOnUse">
            <stop offset="0" stop-color="#908d8d"/>
            <stop offset="0.08" stop-color="#9d9b9b"/>
            <stop offset="0.37" stop-color="#c7c6c6"/>
            <stop offset="0.63" stop-color="#e6e5e5"/>
            <stop offset="0.85" stop-color="#f8f8f8"/>
            <stop offset="1" stop-color="#fff"/>
        </linearGradient>
        <linearGradient id="linear-gradient-3" x1="-463.84" y1="225.73" x2="-463.18" y2="225.73" gradientTransform="matrix(-2.36, -8.08, -8.08, 2.36, 794.58, -4230.01)" xlink:href="#linear-gradient-2"/>
        <linearGradient id="linear-gradient-4" x1="-456.83" y1="219.21" x2="-456.16" y2="219.21" gradientTransform="matrix(0.93, -7.1, -7.1, -0.93, 2014.19, -2987.48)" xlink:href="#linear-gradient-2"/>
        <linearGradient id="linear-gradient-5" x1="-479.03" y1="250.55" x2="-478.42" y2="250.55" gradientTransform="matrix(-3.9, 3.09, 3.09, 3.9, -2567.13, 532.11)" xlink:href="#linear-gradient-2"/>
        <linearGradient id="linear-gradient-6" x1="-465.2" y1="253.16" x2="-464.77" y2="253.16" gradientTransform="matrix(-1.91, 7.92, 7.92, 1.91, -2840.29, 3223.01)" xlink:href="#linear-gradient-2"/>
        <linearGradient id="linear-gradient-7" x1="-458.22" y1="242.2" x2="-457.76" y2="242.2" gradientTransform="matrix(22.52, 20.86, 20.86, -22.52, 5279.3, 15030.66)" xlink:href="#linear-gradient-2"/>
        <linearGradient id="linear-gradient-8" x1="-460.6" y1="240.38" x2="-460.1" y2="240.38" gradientTransform="matrix(42.53, 42.53, 42.53, -42.53, 9398.08, 29835.42)" xlink:href="#linear-gradient"/>
        <linearGradient id="linear-gradient-9" x1="-450.21" y1="250.19" x2="-449.71" y2="250.19" gradientTransform="translate(9449.16 -32933.17) rotate(-45) scale(66.58)" xlink:href="#linear-gradient"/>
        <linearGradient id="linear-gradient-10" x1="-594.79" y1="302.73" x2="-594.34" y2="302.73" gradientTransform="translate(-4757.23 229.96) rotate(-155.35) scale(7.25)" xlink:href="#linear-gradient-2"/>
        <linearGradient id="linear-gradient-11" x1="-421.98" y1="365.87" x2="-421.31" y2="365.87" gradientTransform="translate(-1937.42 -4230.01) rotate(-73.7) scale(8.41)" xlink:href="#linear-gradient-2"/>
        <linearGradient id="linear-gradient-12" x1="-478.18" y1="389.75" x2="-477.52" y2="389.75" gradientTransform="translate(-3157.02 -2987.48) rotate(-97.47) scale(7.16)" xlink:href="#linear-gradient-2"/>
        <linearGradient id="linear-gradient-13" x1="-285.83" y1="95.92" x2="-285.23" y2="95.92" gradientTransform="translate(1424.29 532.11) rotate(38.34) scale(4.97)" xlink:href="#linear-gradient-2"/>
        <linearGradient id="linear-gradient-14" x1="-430.61" y1="106.19" x2="-430.19" y2="106.19" gradientTransform="matrix(1.91, 7.92, -7.92, 1.91, 1697.45, 3223.01)" xlink:href="#linear-gradient-2"/>
        <linearGradient id="linear-gradient-15" x1="-487.79" y1="215.12" x2="-487.33" y2="215.12" gradientTransform="translate(-6422.14 15030.66) rotate(137.19) scale(30.69)" xlink:href="#linear-gradient-2"/>
        <linearGradient id="linear-gradient-16" x1="-475.15" y1="225.99" x2="-474.65" y2="225.99" gradientTransform="translate(-10540.92 29835.42) rotate(135) scale(60.14)" xlink:href="#linear-gradient"/>
        <linearGradient id="linear-gradient-17" x1="-463.2" y1="237.04" x2="-462.7" y2="237.04" xlink:href="#linear-gradient"/>
        <linearGradient id="linear-gradient-18" x1="-440.02" y1="232.81" x2="-439.57" y2="232.81" xlink:href="#linear-gradient-2"/>
        <linearGradient id="linear-gradient-19" x1="-462.19" y1="225.25" x2="-461.53" y2="225.25" gradientTransform="matrix(-2.36, -8.08, -8.08, 2.36, 794.58, -4230.01)" xlink:href="#linear-gradient-2"/>
        <linearGradient id="linear-gradient-20" x1="-454.82" y1="219.47" x2="-454.16" y2="219.47" gradientTransform="matrix(0.93, -7.1, -7.1, -0.93, 2014.19, -2987.48)" xlink:href="#linear-gradient-2"/>
        <linearGradient id="linear-gradient-21" x1="-480.83" y1="248.27" x2="-480.23" y2="248.27" gradientTransform="matrix(-3.9, 3.09, 3.09, 3.9, -2567.13, 532.11)" xlink:href="#linear-gradient-2"/>
        <linearGradient id="linear-gradient-22" x1="-466.93" y1="252.74" x2="-466.5" y2="252.74" gradientTransform="matrix(-1.91, 7.92, 7.92, 1.91, -2840.29, 3223.01)" xlink:href="#linear-gradient-2"/>
        <linearGradient id="linear-gradient-23" x1="-458.54" y1="242.54" x2="-458.08" y2="242.54" gradientTransform="matrix(22.52, 20.86, 20.86, -22.52, 5279.3, 15030.66)" xlink:href="#linear-gradient-2"/>
        <linearGradient id="linear-gradient-24" x1="-460.77" y1="240.55" x2="-460.27" y2="240.55" gradientTransform="matrix(42.53, 42.53, 42.53, -42.53, 9398.08, 29835.42)" xlink:href="#linear-gradient"/>
    </defs>
    <g class="cls-1">
        <g id="Layer_2" data-name="Layer 2">
            <g id="Layer_1-2" data-name="Layer 1">
               
                <polygon class="cls-3" points="62.05 46.81 62.06 46.85 62.05 46.81 62.05 46.81"/>
                <path class="cls-4" d="M19.56,41.57l-.75.37.75-.37Z"/>
                <path class="cls-3" d="M60.2,44.24l.21.2-.21-.2Z"/>
                <path class="cls-3" d="M62.1,47c0,.1.07.19.1.29h0c0-.1-.06-.19-.1-.29Z"/>
                <polygon class="cls-5" points="62.05 46.81 62.05 46.83 62.06 46.85 62.05 46.83 62.05 46.81 62.05 46.81"/>
                <path class="cls-3" d="M19.56,41.57h0l-.15.07-.6.3.6-.3.15-.07Z"/>
                <path class="cls-3" d="M66.68,34.55a6.77,6.77,0,0,0-1.38-1.84,11.83,11.83,0,0,0-2-1.59,19.14,19.14,0,0,0-2.9-1.49,32,32,0,0,0-3.74-1.29,40.64,40.64,0,0,0-4.06-.89c-1.31-.23-2.68-.4-4.1-.52l-1-.07-.31,0-.73,0-.33,0-.92,0H42.6l-1,0-.35,0-.76,0-.33,0L39.12,27c-1.52.14-3,.33-4.36.59A35.83,35.83,0,0,0,31,28.4a29.07,29.07,0,0,0-3.53,1.23,19.59,19.59,0,0,0-3,1.58,11.71,11.71,0,0,0-2.11,1.71,6.69,6.69,0,0,0-1.23,1.74,4.5,4.5,0,0,0-.45,1.92,4.61,4.61,0,0,0,.5,2,6.82,6.82,0,0,0,1.38,1.84A11.92,11.92,0,0,0,24.57,42a20.11,20.11,0,0,0,2.9,1.5,29.71,29.71,0,0,0,3.74,1.28,41.05,41.05,0,0,0,4,.89c1.31.23,2.68.4,4.1.52l1,.08.31,0,.73,0,.33,0,.93,0h1.25q2.48,0,4.8-.21c1.51-.13,3-.33,4.36-.58a38.5,38.5,0,0,0,3.76-.87,31.6,31.6,0,0,0,3.53-1.22,18.65,18.65,0,0,0,3-1.59,11.06,11.06,0,0,0,2.12-1.71,6.77,6.77,0,0,0,1.22-1.73,4.43,4.43,0,0,0,.45-1.93A4.51,4.51,0,0,0,66.68,34.55ZM47.76,26.88l-.21,0ZM47,26.83l-.52,0Zm-.95,0-.88,0Zm-3.47,0-.94,0Zm-1.4,0-.55,0Zm-1.12.07h0Zm0,19.4.21,0Zm.75,0,.53,0Zm1,.05.88,0Z"/>
                <path class="cls-4" d="M21.31,40.67a7.16,7.16,0,0,1-1.45-2,4.66,4.66,0,0,1-.33-.85l-5.8.31a5.86,5.86,0,0,0,.41,1,8.81,8.81,0,0,0,1.8,2.41c.14.15.3.29.45.43L21.68,41Z"/>
                <path class="cls-4" d="M69.36,43.64l-4.89-1.36a20.53,20.53,0,0,1-3.18,1.65c-.64.27-1.32.53-2,.77l3.66,1.93c.87-.3,1.71-.62,2.5-1A26.81,26.81,0,0,0,69.36,43.64Z"/>
                <path class="cls-4" d="M34.77,46.23c-1.12-.19-2.2-.41-3.23-.67L28.6,47.7c1.27.31,2.61.59,4,.83,1.58.26,3.22.48,4.91.63l1.23-2.42C37.37,46.62,36.05,46.45,34.77,46.23Z"/>
                <path class="cls-4" d="M66.51,32.49A7.42,7.42,0,0,1,68,34.44a6.78,6.78,0,0,1,.33.85L74.1,35a7.59,7.59,0,0,0-.41-1,9.18,9.18,0,0,0-1.8-2.41l-.46-.42-5.29,1Z"/>
                <path class="cls-4" d="M53.05,26.93c1.12.19,2.2.42,3.24.67l2.94-2.14c-1.28-.31-2.61-.59-4-.83q-2.37-.39-4.92-.63l-1.23,2.42C50.45,26.54,51.78,26.71,53.05,26.93Z"/>
                <path class="cls-3" d="M74.1,35l-5.8.31h0a6.78,6.78,0,0,0-.33-.85,7.42,7.42,0,0,0-1.46-1.95l-.37-.34h0l5.29-1a15.73,15.73,0,0,0-2.21-1.66,26.42,26.42,0,0,0-3.8-2,41,41,0,0,0-4.89-1.68l-1.3-.34L56.29,27.6h0c-1-.25-2.11-.48-3.24-.67s-2.6-.39-4-.51L50.31,24l-.45,0c-1.92-.16-3.91-.24-6-.24s-4.24.09-6.27.27-3.88.43-5.7.76-3.37.69-4.92,1.13c-.73.21-1.43.43-2.11.66l3.65,1.93c-.71.24-1.39.49-2,.76a21.84,21.84,0,0,0-3.21,1.67l0,0-4.89-1.35,0,0a15,15,0,0,0-2.76,2.25,8.56,8.56,0,0,0-1.6,2.27,5.87,5.87,0,0,0-.58,2.51,5.44,5.44,0,0,0,.24,1.6l5.8-.31h0a5.58,5.58,0,0,0,.34.85,7.16,7.16,0,0,0,1.45,2l.37.34-5.29,1.06a17.3,17.3,0,0,0,2.22,1.65,25.77,25.77,0,0,0,3.79,2,40.49,40.49,0,0,0,4.89,1.68l1.31.34,2.94-2.14c1,.26,2.11.48,3.23.67,1.39.24,2.84.42,4.34.55l-.37,0-1.23,2.42.45,0c1.93.16,3.92.25,5.95.25s4.25-.1,6.27-.28,3.89-.43,5.7-.76a50.2,50.2,0,0,0,4.92-1.13c.73-.2,1.43-.42,2.12-.65L59.26,44.7c.71-.24,1.39-.5,2-.77a20.53,20.53,0,0,0,3.18-1.65l4.89,1.36,0,0a15.18,15.18,0,0,0,2.76-2.24,8.85,8.85,0,0,0,1.59-2.27,6,6,0,0,0,.58-2.52A5.78,5.78,0,0,0,74.1,35Zm-8.29-3.11-.13-.11Zm-.92-.7-.53-.36Zm.49.35-.24-.18ZM30.27,27.94l-.88.26ZM19.44,37.53v0Zm-.09-.64v0Zm0,.31v0ZM22,41.3l.13.1Zm.92.69.54.36Zm-.49-.35.25.18Zm35.12,3.59.87-.26Zm4.24-3.72A17.31,17.31,0,0,1,59,43a27.23,27.23,0,0,1-3.24,1.12c-1.08.31-2.24.58-3.45.8s-2.62.41-4,.53-2.9.2-4.41.2-2.82-.06-4.18-.18S37.18,45.17,36,45s-2.56-.5-3.72-.82A29.38,29.38,0,0,1,28.81,43a18.84,18.84,0,0,1-2.66-1.37,11.23,11.23,0,0,1-1.88-1.46A6.55,6.55,0,0,1,23,38.44a4.24,4.24,0,0,1-.45-1.86A4.16,4.16,0,0,1,23,34.81a6.24,6.24,0,0,1,1.12-1.59A10.87,10.87,0,0,1,26,31.65a19.12,19.12,0,0,1,2.79-1.46,29.87,29.87,0,0,1,3.24-1.12c1.09-.31,2.24-.57,3.46-.79a40.24,40.24,0,0,1,4-.54c1.42-.13,2.89-.2,4.4-.2s2.83.07,4.18.18,2.56.27,3.77.48a35.17,35.17,0,0,1,3.72.82A27.5,27.5,0,0,1,59,30.19a18.49,18.49,0,0,1,2.67,1.38A11,11,0,0,1,63.55,33a6.3,6.3,0,0,1,1.27,1.69,4.12,4.12,0,0,1,.46,1.86,4.24,4.24,0,0,1-.41,1.77,6.05,6.05,0,0,1-1.13,1.59A10.52,10.52,0,0,1,61.8,41.51Zm6.58-5.92v0Zm.05.3v0Zm0,.31v0Z"/>
                <path class="cls-4" d="M26.53,29.23c.64-.27,1.32-.52,2-.76l-3.65-1.93c-.88.29-1.72.61-2.51.94a26.18,26.18,0,0,0-3.93,2.05l4.89,1.35A21.3,21.3,0,0,1,26.53,29.23Z"/>
                <path class="cls-3" d="M63.13,34.87A6.07,6.07,0,0,0,62,33.31,10.25,10.25,0,0,0,60.24,32a18,18,0,0,0-2.45-1.26,25.93,25.93,0,0,0-3.16-1.08,34.61,34.61,0,0,0-3.42-.76c-1.1-.18-2.26-.33-3.46-.43s-2.52-.16-3.84-.16-2.74.06-4,.17-2.5.28-3.67.5a31,31,0,0,0-3.18.73,25.91,25.91,0,0,0-3,1,16.55,16.55,0,0,0-2.56,1.34,9.46,9.46,0,0,0-1.78,1.44,5.58,5.58,0,0,0-1,1.47,3.67,3.67,0,0,0,0,3.33,6.12,6.12,0,0,0,1.17,1.56,10.57,10.57,0,0,0,1.72,1.34A17,17,0,0,0,30,42.45a24.33,24.33,0,0,0,3.16,1.08,32.52,32.52,0,0,0,3.42.76c1.11.19,2.27.34,3.46.44.94.08,1.9.13,2.87.15q-1.44,0-2.82-.15c-1.18-.1-2.33-.25-3.42-.43s-2.32-.46-3.38-.75a24.71,24.71,0,0,1-3.12-1.07,17.6,17.6,0,0,1-2.42-1.24,11,11,0,0,1-1.71-1.33,5.78,5.78,0,0,1-1.15-1.54,3.8,3.8,0,0,1-.42-1.69,3.76,3.76,0,0,1,.38-1.6,5.48,5.48,0,0,1,1-1.45,10,10,0,0,1,1.76-1.43,16.28,16.28,0,0,1,2.54-1.32,24.58,24.58,0,0,1,2.94-1c1-.28,2-.52,3.14-.73s2.37-.37,3.63-.48,2.63-.18,4-.18,2.57.06,3.8.16,2.32.25,3.42.43a34.44,34.44,0,0,1,3.38.75,25.85,25.85,0,0,1,3.12,1.07,17.6,17.6,0,0,1,2.42,1.24,10.46,10.46,0,0,1,1.7,1.33A5.72,5.72,0,0,1,62.9,35a3.77,3.77,0,0,1,.42,1.69,3.62,3.62,0,0,1-.38,1.6,5.41,5.41,0,0,1-1,1.45,10,10,0,0,1-1.76,1.43,16.16,16.16,0,0,1-2.53,1.32,25.39,25.39,0,0,1-3,1c-1,.28-2,.52-3.13.72s-2.38.38-3.64.49-2.63.18-4,.18c1.39,0,2.74-.07,4.05-.18s2.51-.28,3.68-.49,2.17-.45,3.17-.73a25.89,25.89,0,0,0,3-1,16.66,16.66,0,0,0,2.57-1.33,9.9,9.9,0,0,0,1.78-1.45,5.91,5.91,0,0,0,1-1.46,3.78,3.78,0,0,0,.38-1.63A3.72,3.72,0,0,0,63.13,34.87Z"/>
                <path class="cls-6" d="M25.7,31.56a10.67,10.67,0,0,0-2,1.6,6.27,6.27,0,0,0-1.13,1.62,4.07,4.07,0,0,0,0,3.7,6.5,6.5,0,0,0,1.28,1.72,11.74,11.74,0,0,0,1.9,1.49,18.45,18.45,0,0,0,2.71,1.39,27.61,27.61,0,0,0,3.5,1.2,36.21,36.21,0,0,0,3.79.84c1.24.21,2.53.37,3.83.48s2.83.17,4.25.17,3-.07,4.48-.2,2.75-.3,4.07-.54,2.4-.48,3.52-.8a27.33,27.33,0,0,0,3.31-1.15,18.29,18.29,0,0,0,2.84-1.48,10.52,10.52,0,0,0,2-1.6,6.32,6.32,0,0,0,1.14-1.62,4.33,4.33,0,0,0,.41-1.8,4.21,4.21,0,0,0-.46-1.89A6.6,6.6,0,0,0,63.9,33,11.19,11.19,0,0,0,62,31.48a17.52,17.52,0,0,0-2.71-1.4,28.16,28.16,0,0,0-3.5-1.2c-1.21-.33-2.48-.61-3.79-.83s-2.53-.37-3.84-.48-2.82-.18-4.25-.18-3,.07-4.48.2-2.75.3-4.07.54-2.4.49-3.52.8a27.17,27.17,0,0,0-3.3,1.15A17.84,17.84,0,0,0,25.7,31.56Zm10.35-2.75c1.21-.22,2.47-.38,3.75-.49s2.73-.19,4.11-.19,2.62.06,3.91.17,2.38.24,3.52.44a33,33,0,0,1,3.49.76A26.81,26.81,0,0,1,58,30.6a16.92,16.92,0,0,1,2.49,1.29,10.24,10.24,0,0,1,1.75,1.37,6,6,0,0,1,1.18,1.58,4,4,0,0,1,.43,1.74,3.8,3.8,0,0,1-.39,1.65,5.38,5.38,0,0,1-1,1.49,9.64,9.64,0,0,1-1.81,1.48A16.64,16.64,0,0,1,58,42.56a25,25,0,0,1-3,1c-1,.29-2.12.54-3.24.74s-2.46.38-3.74.5-2.74.18-4.12.18S41.3,45,40,44.87s-2.38-.25-3.53-.44S34.11,44,33,43.66a25.86,25.86,0,0,1-3.22-1.1,16.47,16.47,0,0,1-2.49-1.29,10.21,10.21,0,0,1-1.75-1.36,6.12,6.12,0,0,1-1.17-1.59,3.75,3.75,0,0,1-.05-3.39,5.6,5.6,0,0,1,1-1.49A10,10,0,0,1,27.17,32a17.53,17.53,0,0,1,2.61-1.36,27.05,27.05,0,0,1,3-1.05C33.85,29.26,34.93,29,36.05,28.81Z"/>
                <path class="cls-3" d="M60.24,32l1.44-.4A18.49,18.49,0,0,0,59,30.19l-1.22.52A18,18,0,0,1,60.24,32Z"/>
                <path class="cls-4" d="M62,33.31,63.55,33a11,11,0,0,0-1.87-1.46l-1.44.4A10.25,10.25,0,0,1,62,33.31Z"/>
                <path class="cls-3" d="M63.13,34.87l1.69-.15A6.3,6.3,0,0,0,63.55,33L62,33.31A6.07,6.07,0,0,1,63.13,34.87Z"/>
                <path class="cls-4" d="M57.79,42.45,59,43a17.31,17.31,0,0,0,2.79-1.46l-1.44-.39A16.66,16.66,0,0,1,57.79,42.45Z"/>
                <path class="cls-4" d="M25.69,33.49l-1.61-.27A6.24,6.24,0,0,0,23,34.81l1.69.15A5.58,5.58,0,0,1,25.69,33.49Z"/>
                <path class="cls-3" d="M24.69,38.29,23,38.44a6.55,6.55,0,0,0,1.27,1.7l1.59-.29A6.12,6.12,0,0,1,24.69,38.29Z"/>
                <path class="cls-3" d="M24.65,35,23,34.81a4.16,4.16,0,0,0-.41,1.77h1.72A3.88,3.88,0,0,1,24.65,35Z"/>
                <path class="cls-4" d="M24.27,36.58H22.55A4.24,4.24,0,0,0,23,38.44l1.69-.15A3.85,3.85,0,0,1,24.27,36.58Z"/>
                <path class="cls-4" d="M25.86,39.85l-1.59.29a11.23,11.23,0,0,0,1.88,1.46l1.43-.41A10.57,10.57,0,0,1,25.86,39.85Z"/>
                <path class="cls-4" d="M30,42.45,28.81,43a29.38,29.38,0,0,0,3.44,1.18l.94-.62A24.33,24.33,0,0,1,30,42.45Z"/>
                <path class="cls-3" d="M27.58,41.19l-1.43.41A18.84,18.84,0,0,0,28.81,43L30,42.45A17,17,0,0,1,27.58,41.19Z"/>
                <path class="cls-3" d="M33.19,43.53l-.94.62c1.16.32,2.41.59,3.72.82l.64-.68A32.52,32.52,0,0,1,33.19,43.53Z"/>
                <path class="cls-3" d="M27.47,32.05,26,31.65a10.87,10.87,0,0,0-1.94,1.57l1.61.27A9.46,9.46,0,0,1,27.47,32.05Z"/>
                <path class="cls-4" d="M43.91,28.28v-.74c-1.51,0-3,.07-4.4.2l.35.71C41.17,28.34,42.53,28.28,43.91,28.28Z"/>
                <path class="cls-4" d="M36.19,29l-.68-.67c-1.22.22-2.37.48-3.46.79l1,.61A31,31,0,0,1,36.19,29Z"/>
                <path class="cls-3" d="M39.86,28.45l-.35-.71a40.24,40.24,0,0,0-4,.54l.68.67C37.36,28.73,38.59,28.57,39.86,28.45Z"/>
                <path class="cls-4" d="M30,30.71l-1.22-.52A19.12,19.12,0,0,0,26,31.65l1.45.4A16.55,16.55,0,0,1,30,30.71Z"/>
                <path class="cls-3" d="M33,29.68l-1-.61a29.87,29.87,0,0,0-3.24,1.12l1.22.52A25.91,25.91,0,0,1,33,29.68Z"/>
                <path class="cls-4" d="M63.13,34.87a3.72,3.72,0,0,1,.42,1.71h1.73a4.12,4.12,0,0,0-.46-1.86Z"/>
                <path class="cls-3" d="M63.17,38.21l1.7.14a4.24,4.24,0,0,0,.41-1.77H63.55A3.78,3.78,0,0,1,63.17,38.21Z"/>
                <path class="cls-4" d="M57.79,30.71,59,30.19A27.5,27.5,0,0,0,55.58,29l-.95.61A25.93,25.93,0,0,1,57.79,30.71Z"/>
                <path class="cls-4" d="M62.14,39.67l1.6.27a6.05,6.05,0,0,0,1.13-1.59l-1.7-.14A5.91,5.91,0,0,1,62.14,39.67Z"/>
                <path class="cls-4" d="M36.61,44.29,36,45c1.21.2,2.46.36,3.76.47l.34-.71C38.88,44.63,37.72,44.48,36.61,44.29Z"/>
                <path class="cls-3" d="M54.63,29.63l.95-.61a35.17,35.17,0,0,0-3.72-.82l-.65.67A34.61,34.61,0,0,1,54.63,29.63Z"/>
                <path class="cls-4" d="M51.21,28.87l.65-.67c-1.21-.21-2.47-.37-3.77-.48l-.34.72C49,28.54,50.11,28.69,51.21,28.87Z"/>
                <path class="cls-3" d="M60.36,41.12l1.44.39a10.52,10.52,0,0,0,1.94-1.57l-1.6-.27A9.9,9.9,0,0,1,60.36,41.12Z"/>
                <path class="cls-4" d="M43.91,44.89v.73c1.51,0,3-.07,4.41-.2L48,44.71C46.65,44.82,45.3,44.89,43.91,44.89Z"/>
                <path class="cls-3" d="M47.75,28.44l.34-.72c-1.35-.11-2.75-.18-4.18-.18v.74C45.23,28.28,46.51,28.33,47.75,28.44Z"/>
                <path class="cls-3" d="M40.07,44.73l-.34.71c1.36.12,2.75.18,4.18.18v-.73C42.6,44.89,41.32,44.83,40.07,44.73Z"/>
                <path class="cls-3" d="M48,44.71l.36.71c1.38-.12,2.72-.3,4-.53l-.68-.67C50.47,44.43,49.24,44.6,48,44.71Z"/>
                <path class="cls-4" d="M51.64,44.22l.68.67c1.21-.22,2.37-.49,3.45-.8l-1-.6C53.81,43.77,52.75,44,51.64,44.22Z"/>
                <path class="cls-3" d="M54.81,43.49l1,.6A27.23,27.23,0,0,0,59,43l-1.22-.52A25.89,25.89,0,0,1,54.81,43.49Z"/>
                <path class="cls-3" d="M19.64,38.22l0,.08Z"/>
                <path class="cls-3" d="M61.29,43.93a20.53,20.53,0,0,0,3.18-1.65A20.53,20.53,0,0,1,61.29,43.93Z"/>
                <path class="cls-3" d="M36.74,46.52c.65.09,1.32.16,2,.22C38.06,46.68,37.39,46.61,36.74,46.52Z"/>
                <path class="cls-3" d="M35.76,46.39l.8.11Z"/>
                <path class="cls-3" d="M68.15,34.86l0,0Z"/>
                <path class="cls-4" d="M24.85,30c-.53.28-1,.56-1.49.86C23.82,30.58,24.32,30.3,24.85,30Z"/>
                <path class="cls-4" d="M25.66,29.62l-.75.37Z"/>
                <path class="cls-3" d="M19.88,37.86a2.19,2.19,0,0,0,.12.33,2,2,0,0,1-.12-.34Z"/>
                <path class="cls-3" d="M31.72,45.43q1.53.38,3.18.66Q33.25,45.8,31.72,45.43Z"/>
                <path class="cls-3" d="M38.82,46.59l.36,0-.36,0Z"/>
                <path class="cls-3" d="M56.11,27.73c-1-.25-2.08-.47-3.19-.66C54,27.26,55.09,27.48,56.11,27.73Z"/>
                <path class="cls-3" d="M67.81,34.93a2.43,2.43,0,0,1,.13.38A2.43,2.43,0,0,0,67.81,34.93Z"/>
                <path class="cls-7" d="M16.79,42l-.44-.42a9.09,9.09,0,0,1-1.78-2.37,7.47,7.47,0,0,1-.41-1l-.43,0a5.86,5.86,0,0,0,.41,1,8.81,8.81,0,0,0,1.8,2.41c.14.15.3.29.45.43Z"/>
                <path class="cls-8" d="M65.11,45.55c-.78.33-1.61.64-2.47.93l.28.15c.87-.3,1.71-.62,2.5-1a26.81,26.81,0,0,0,3.94-2L69,43.53A26,26,0,0,1,65.11,45.55Z"/>
                <path class="cls-9" d="M32.76,48.35c-1.37-.23-2.68-.5-3.94-.81l-.22.16c1.27.31,2.61.59,4,.83,1.58.26,3.22.48,4.91.63l.1-.18C35.94,48.83,34.32,48.62,32.76,48.35Z"/>
                <path class="cls-10" d="M71.48,31.59A8.71,8.71,0,0,1,73.25,34a6,6,0,0,1,.41,1l.44,0a7.59,7.59,0,0,0-.41-1,9.18,9.18,0,0,0-1.8-2.41l-.46-.42-.4.08C71.18,31.31,71.34,31.45,71.48,31.59Z"/>
                <path class="cls-11" d="M55.06,24.81c1.37.23,2.69.5,3.95.82l.22-.17c-1.28-.31-2.61-.59-4-.83q-2.37-.39-4.92-.63l-.09.19C51.89,24.34,53.51,24.55,55.06,24.81Z"/>
                <path class="cls-12" d="M14.16,38.16a5.64,5.64,0,0,1-.23-1.58,5.74,5.74,0,0,1,.58-2.48,8.62,8.62,0,0,1,1.57-2.24,14.8,14.8,0,0,1,2.72-2.2l0,0-.37-.1,0,0a15,15,0,0,0-2.76,2.25,8.56,8.56,0,0,0-1.6,2.27,5.87,5.87,0,0,0-.58,2.51,5.44,5.44,0,0,0,.24,1.6Z"/>
                <path class="cls-12" d="M28.82,47.54l-1.28-.34a39.52,39.52,0,0,1-4.83-1.65A25.94,25.94,0,0,1,19,43.62,16.84,16.84,0,0,1,16.79,42l-.4.08a17.3,17.3,0,0,0,2.22,1.65,25.77,25.77,0,0,0,3.79,2,40.49,40.49,0,0,0,4.89,1.68l1.31.34Z"/>
                <path class="cls-12" d="M62.64,46.48c-.67.23-1.36.44-2.08.65-1.53.43-3.15.8-4.85,1.11s-3.67.58-5.62.75-4.06.27-6.18.27-4-.08-5.86-.24l-.44,0-.1.18.45,0c1.93.16,3.92.25,5.95.25s4.25-.1,6.27-.28,3.89-.43,5.7-.76a50.2,50.2,0,0,0,4.92-1.13c.73-.2,1.43-.42,2.12-.65Z"/>
                <path class="cls-12" d="M74.1,35l-.44,0a5.7,5.7,0,0,1,.23,1.58,5.87,5.87,0,0,1-.57,2.48,8.62,8.62,0,0,1-1.57,2.24A15.62,15.62,0,0,1,69,43.51l0,0,.37.11,0,0a15.18,15.18,0,0,0,2.76-2.24,8.85,8.85,0,0,0,1.59-2.27,6,6,0,0,0,.58-2.52A5.78,5.78,0,0,0,74.1,35Z"/>
                <path class="cls-12" d="M59,25.63c.43.1.86.21,1.28.33a38.75,38.75,0,0,1,4.82,1.66,25.59,25.59,0,0,1,3.74,1.92A16.1,16.1,0,0,1,71,31.18l.4-.08a15.73,15.73,0,0,0-2.21-1.66,26.42,26.42,0,0,0-3.8-2,41,41,0,0,0-4.89-1.68l-1.3-.34Z"/>
                <path class="cls-12" d="M25.19,26.68c.67-.22,1.36-.44,2.08-.64a49.2,49.2,0,0,1,4.84-1.12c1.79-.32,3.67-.57,5.62-.75s4.06-.27,6.18-.27,4,.09,5.87.25l.44,0,.09-.19-.45,0c-1.92-.16-3.91-.24-6-.24s-4.24.09-6.27.27-3.88.43-5.7.76-3.37.69-4.92,1.13c-.73.21-1.43.43-2.11.66Z"/>
                <path class="cls-13" d="M22.71,27.62c.78-.33,1.61-.64,2.48-.94l-.28-.14c-.88.29-1.72.61-2.51.94a26.18,26.18,0,0,0-3.93,2.05l.37.1A25.43,25.43,0,0,1,22.71,27.62Z"/>
                <path class="cls-3" d="M65.82,32.21l.36.34-.36-.34Z"/>
                <path class="cls-3" d="M61,43.82c-.63.27-1.3.52-2,.76C59.74,44.34,60.41,44.09,61,43.82Z"/>
                <path class="cls-4" d="M49.14,47.42c0-.28.55-.52,1.24-.52s1.24.24,1.24.52-.56.53-1.24.53S49.14,47.71,49.14,47.42Z"/>
                <path class="cls-4" d="M36.56,25.74c0-.29.56-.53,1.24-.53s1.24.24,1.24.53-.55.52-1.24.52S36.56,26,36.56,25.74Z"/>
                <path class="cls-4" d="M16.72,34.62c0-.29.56-.53,1.24-.53s1.24.24,1.24.53-.55.52-1.24.52S16.72,34.9,16.72,34.62Z"/>
                <path class="cls-4" d="M23.63,44.32c0-.29.56-.53,1.24-.53s1.24.24,1.24.53-.55.52-1.24.52S23.63,44.6,23.63,44.32Z"/>
                <path class="cls-4" d="M68.27,39.15c0-.29.55-.53,1.24-.53s1.24.24,1.24.53-.56.52-1.24.52S68.27,39.44,68.27,39.15Z"/>
                <path class="cls-4" d="M62.16,29.15c0-.29.55-.53,1.24-.53s1.24.24,1.24.53-.56.52-1.24.52S62.16,29.44,62.16,29.15Z"/>
                <path class="cls-14" d="M60.36,41.12a9.31,9.31,0,0,0,1.78-1.45,6,6,0,0,0,1-1.46,4,4,0,0,0,.37-1.63,3.82,3.82,0,0,0-.42-1.71A6,6,0,0,0,62,33.31,10.28,10.28,0,0,0,60.25,32l-.5-.3-.15-.09-.39-.2-.17-.1L58.53,31l-.06,0-.67-.29-.74-.3h0l-.07,0-.63-.23-.23-.08-.52-.17-.23-.07-.74-.22a34.53,34.53,0,0,0-3.43-.75c-1.12-.19-2.28-.33-3.46-.43s-2.55-.16-3.84-.16-2.71.06-4,.18-2.49.27-3.68.49-2.17.44-3.18.72a25.34,25.34,0,0,0-3,1,15.36,15.36,0,0,0-2.57,1.34,10,10,0,0,0-1.78,1.44,5.58,5.58,0,0,0-1,1.47,3.8,3.8,0,0,0-.38,1.62,3.92,3.92,0,0,0,.42,1.71,6.18,6.18,0,0,0,1.16,1.56,10.38,10.38,0,0,0,1.72,1.34l.49.3.16.09.38.21.18.09.51.25c.23.11.47.22.73.32a24.91,24.91,0,0,0,3.16,1.09,35,35,0,0,0,3.42.75c1.13.19,2.29.33,3.46.43s2.56.16,3.84.16,2.71-.06,4.05-.18,2.48-.27,3.68-.48,2.16-.44,3.18-.73a24.81,24.81,0,0,0,3-1A16.45,16.45,0,0,0,60.36,41.12Zm-.46-9.36-.1-.06Zm-.38-.21-.27-.15Zm-.5-.27L58.53,31C58.7,31.12,58.86,31.19,59,31.28Zm-2-.89-.61-.22Zm-.91-.33-.37-.12Zm-.76-.24-.15,0ZM27.92,41.4l.11.06Zm.38.22.28.15Zm.51.27.48.24Z"/>
                <path class="cls-3" d="M62.72,34.91a5.85,5.85,0,0,0-1.14-1.53,10.19,10.19,0,0,0-1.69-1.31,16.15,16.15,0,0,0-2.39-1.23,25,25,0,0,0-3.1-1.06A33.64,33.64,0,0,0,51.06,29c-1.09-.19-2.22-.33-3.39-.43l-.82-.06-.26,0-.6,0h-.28l-.76,0h-1l-1,0h-.08c-.27,0-.55,0-.82,0h-.29l-.63,0-.27,0-.87.07q-1.87.16-3.6.48c-1.09.2-2.13.44-3.1.71a24.86,24.86,0,0,0-2.92,1,15.9,15.9,0,0,0-2.51,1.3,9.82,9.82,0,0,0-1.74,1.42,5.44,5.44,0,0,0-1,1.43,3.64,3.64,0,0,0-.38,1.59,3.73,3.73,0,0,0,.42,1.68,5.76,5.76,0,0,0,1.14,1.52,9.69,9.69,0,0,0,1.68,1.31,16.8,16.8,0,0,0,2.4,1.24,27.19,27.19,0,0,0,3.09,1.06,33.9,33.9,0,0,0,3.35.73c1.08.19,2.21.33,3.38.43.28,0,.55.05.83.06l.26,0,.6,0h.27l.77,0h1q2,0,4-.18c1.25-.11,2.46-.27,3.6-.48s2.13-.43,3.11-.71a26.86,26.86,0,0,0,2.92-1A17.15,17.15,0,0,0,60,41a9.16,9.16,0,0,0,1.75-1.42,5.35,5.35,0,0,0,1-1.43,3.6,3.6,0,0,0,0-3.26ZM47.09,28.57h0Zm-.62,0-.43,0Zm-.79,0-.72,0Zm-2.86,0-.78,0Zm-1.15,0-.46,0Zm-.93.06h0Zm0,16h0Zm.62,0,.43,0Zm.79,0,.73,0Z"/>
                <path class="cls-4" d="M32.6,48.53c-1.39-.24-2.73-.52-4-.83v6.61c1.27.32,2.61.59,4,.83,1.58.27,3.22.48,4.91.63V49.16C35.82,49,34.18,48.79,32.6,48.53Z"/>
                <path class="cls-4" d="M13.49,36.58v1.73l.24-.13A5.44,5.44,0,0,1,13.49,36.58Z"/>
                <path class="cls-4" d="M15.94,41.64a8.81,8.81,0,0,1-1.8-2.41,5.86,5.86,0,0,1-.41-1l-.24.13v4.88a5.39,5.39,0,0,0,.24,1.6,6.26,6.26,0,0,0,.41,1.06,9.12,9.12,0,0,0,1.8,2.41l.45.42V42.07C16.24,41.93,16.08,41.79,15.94,41.64Z"/>
                <path class="cls-3" d="M27.29,47.36a40.49,40.49,0,0,1-4.89-1.68,25.77,25.77,0,0,1-3.79-2,17.3,17.3,0,0,1-2.22-1.65v6.61a17.34,17.34,0,0,0,2.22,1.66,25.77,25.77,0,0,0,3.79,1.95A40.49,40.49,0,0,0,27.29,54l1.31.34V47.7Z"/>
                <path class="cls-3" d="M74.31,42.73V37.05a5.87,5.87,0,0,1-.56,2.05,8.85,8.85,0,0,1-1.59,2.27,15.18,15.18,0,0,1-2.76,2.24v6.61A15.18,15.18,0,0,0,72.16,48a8.85,8.85,0,0,0,1.59-2.27,5.88,5.88,0,0,0,.58-2.52A3.54,3.54,0,0,0,74.31,42.73Z"/>
                <path class="cls-3" d="M60.8,47.28a50.2,50.2,0,0,1-4.92,1.13c-1.81.33-3.72.59-5.7.76s-4.12.28-6.27.28-4-.09-5.95-.25l-.45,0v6.61l.45,0c1.93.17,3.92.25,5.95.25s4.25-.1,6.27-.27,3.89-.44,5.7-.77a50.2,50.2,0,0,0,4.92-1.13c.73-.2,1.43-.42,2.12-.65V46.63C62.23,46.86,61.53,47.08,60.8,47.28Z"/>
                <path class="cls-4" d="M69.36,43.64a26.81,26.81,0,0,1-3.94,2c-.79.33-1.63.65-2.5,1v6.61c.87-.3,1.71-.61,2.5-1a25.87,25.87,0,0,0,3.94-2l0,0V43.61Z"/>
                <polygon class="cls-3" points="25.77 39.68 25.76 39.72 25.77 39.68 25.77 39.68"/>
                <path class="cls-4" d="M68.26,34.44l.76.37-.76-.37Z"/>
                <path class="cls-3" d="M27.63,37.11c-.07.07-.15.13-.21.2s.14-.13.21-.2Z"/>
                <path class="cls-3" d="M25.72,39.82l-.09.29h0l.09-.29Z"/>
                <polygon class="cls-5" points="25.77 39.68 25.77 39.7 25.76 39.72 25.77 39.7 25.77 39.68 25.77 39.68"/>
                <path class="cls-3" d="M68.26,34.44h0l.15.07.61.3-.61-.3-.15-.07Z"/>
                <path class="cls-3" d="M21.14,27.42a7,7,0,0,1,1.38-1.84A11.92,11.92,0,0,1,24.57,24a19.5,19.5,0,0,1,2.89-1.49,28.85,28.85,0,0,1,3.75-1.29,40.43,40.43,0,0,1,4-.89c1.31-.23,2.68-.4,4.1-.52l1-.07.31,0,.73,0,.33,0,.93,0h2.56c.33,0,.66,0,1,0h.35l.77,0,.33,0,1.05.08c1.51.14,3,.33,4.36.58a38.5,38.5,0,0,1,3.76.87,29.68,29.68,0,0,1,3.53,1.23,19.46,19.46,0,0,1,3,1.58,11.45,11.45,0,0,1,2.12,1.71,6.64,6.64,0,0,1,1.22,1.74,4.36,4.36,0,0,1,.45,1.92,4.48,4.48,0,0,1-.5,2,6.62,6.62,0,0,1-1.38,1.84,11.83,11.83,0,0,1-2,1.59,20.11,20.11,0,0,1-2.9,1.5,30.27,30.27,0,0,1-3.74,1.28,40.64,40.64,0,0,1-4.06.89c-1.31.23-2.68.4-4.1.52l-1,.08h-.31l-.73,0-.33,0-.93,0H43.91c-1.64,0-3.24-.07-4.79-.21s-3-.33-4.36-.58A38.5,38.5,0,0,1,31,37.63a31.79,31.79,0,0,1-3.54-1.22,19.93,19.93,0,0,1-3-1.59,11.29,11.29,0,0,1-2.11-1.71,6.82,6.82,0,0,1-1.23-1.73,4.58,4.58,0,0,1-.45-1.93A4.64,4.64,0,0,1,21.14,27.42Zm18.92-7.67.21,0Zm.75-.05.52,0Zm1-.05.88,0Zm3.46,0c.32,0,.63,0,1,0C45.86,19.65,45.55,19.63,45.23,19.63Zm1.4.05.55,0Zm1.12.07h0Zm0,19.4-.21,0ZM47,39.2l-.53,0Zm-1,0-.89,0Z"/>
                <path class="cls-4" d="M66.51,33.54A7.42,7.42,0,0,0,68,31.59a6.78,6.78,0,0,0,.33-.85l5.8.31a6.72,6.72,0,0,1-.41,1.05,9,9,0,0,1-1.8,2.41l-.46.43-5.29-1.06A4,4,0,0,0,66.51,33.54Z"/>
                <path class="cls-4" d="M18.47,36.51l4.89-1.36a20.4,20.4,0,0,0,3.17,1.65c.64.27,1.32.53,2,.76l-3.65,1.93c-.88-.29-1.72-.61-2.51-.94A26.18,26.18,0,0,1,18.47,36.51Z"/>
                <path class="cls-4" d="M53.05,39.1c1.12-.19,2.2-.41,3.24-.67l2.94,2.14c-1.28.31-2.61.59-4,.83-1.58.26-3.22.48-4.92.63l-1.23-2.42C50.45,39.49,51.78,39.32,53.05,39.1Z"/>
                <path class="cls-4" d="M21.31,25.36a7.16,7.16,0,0,0-1.45,1.95,4.66,4.66,0,0,0-.33.85l-5.8-.31a6.16,6.16,0,0,1,.41-1.05,9,9,0,0,1,1.8-2.41l.45-.42L21.68,25Z"/>
                <path class="cls-4" d="M34.77,19.8c-1.12.19-2.2.41-3.23.67L28.6,18.33c1.27-.31,2.61-.59,4-.83,1.57-.26,3.22-.47,4.91-.63l1.23,2.42C37.38,19.41,36.05,19.58,34.77,19.8Z"/>
                <path class="cls-3" d="M13.73,27.85l5.8.31h0a4.66,4.66,0,0,1,.33-.85,7.16,7.16,0,0,1,1.45-1.95l.37-.34h0L16.39,24a15.84,15.84,0,0,1,2.22-1.66,25.77,25.77,0,0,1,3.79-2,40.49,40.49,0,0,1,4.89-1.68l1.31-.34,2.94,2.14h0c1-.25,2.11-.48,3.23-.67,1.28-.22,2.61-.39,4-.51l-1.23-2.42.45,0c1.93-.16,3.92-.25,5.95-.25s4.25.1,6.27.28,3.89.43,5.7.76a50.2,50.2,0,0,1,4.92,1.13c.73.21,1.43.43,2.12.66l-3.66,1.93c.71.24,1.39.49,2,.76a21.35,21.35,0,0,1,3.21,1.67l0,0,4.89-1.35,0,0a15.65,15.65,0,0,1,2.76,2.25,8.52,8.52,0,0,1,1.59,2.27,5.87,5.87,0,0,1,.58,2.51,5.78,5.78,0,0,1-.23,1.6l-5.8-.31h0a5.53,5.53,0,0,1-.33.85,7.42,7.42,0,0,1-1.46,1.95,4,4,0,0,1-.37.34l5.29,1.06a16.5,16.5,0,0,1-2.21,1.65,26.42,26.42,0,0,1-3.8,2,39.32,39.32,0,0,1-4.89,1.68l-1.3.34-2.94-2.14c-1,.26-2.12.48-3.24.67-1.38.24-2.83.42-4.33.55l.36,0L50.31,42l-.45,0c-1.92.16-3.91.25-6,.25s-4.25-.1-6.27-.28-3.88-.43-5.7-.76-3.37-.69-4.92-1.13c-.73-.2-1.43-.42-2.11-.66l3.65-1.93c-.71-.23-1.39-.49-2-.76a20.4,20.4,0,0,1-3.17-1.65l-4.89,1.36,0,0a14.92,14.92,0,0,1-2.76-2.24A8.9,8.9,0,0,1,14.07,32a6,6,0,0,1-.58-2.52A5.44,5.44,0,0,1,13.73,27.85ZM22,24.74l.13-.11Zm.92-.7.54-.36Zm-.49.35.25-.18Zm35.12-3.58.87.26ZM68.39,30.4v0Zm.09-.64v0Zm0,.31v0Zm-2.63,4.1-.13.1Zm-.92.69-.54.36Zm.49-.35-.24.18ZM30.27,38.1l-.88-.27ZM26,34.38a18.2,18.2,0,0,0,2.79,1.46A27.86,27.86,0,0,0,32.05,37c1.09.31,2.24.58,3.46.8s2.61.41,4,.53,2.89.2,4.4.2,2.83-.06,4.18-.18,2.56-.27,3.77-.47,2.55-.5,3.72-.82A29.2,29.2,0,0,0,59,35.84a19,19,0,0,0,2.67-1.37A11.56,11.56,0,0,0,63.55,33a6.34,6.34,0,0,0,1.27-1.7,4,4,0,0,0,.05-3.63,6.05,6.05,0,0,0-1.13-1.59,10.52,10.52,0,0,0-1.94-1.57A18.15,18.15,0,0,0,59,23.06a29.14,29.14,0,0,0-3.24-1.12c-1.08-.31-2.24-.57-3.45-.8s-2.62-.41-4-.53-2.9-.2-4.41-.2-2.82.07-4.17.18-2.57.27-3.77.48a34.63,34.63,0,0,0-3.72.82,27.67,27.67,0,0,0-3.44,1.17,17.85,17.85,0,0,0-2.66,1.38,10.28,10.28,0,0,0-1.88,1.46A6.51,6.51,0,0,0,23,27.59a4.24,4.24,0,0,0-.45,1.86A4.1,4.1,0,0,0,23,31.22a6.24,6.24,0,0,0,1.12,1.59A10.87,10.87,0,0,0,26,34.38Zm-6.57-5.92v0Zm-.06.3v0Zm0,.31v0Z"/>
                <path class="cls-4" d="M61.29,22.1c-.64-.27-1.32-.52-2-.76l3.66-1.93c.87.29,1.71.61,2.5.94a26.81,26.81,0,0,1,3.94,2l-4.89,1.35A21.43,21.43,0,0,0,61.29,22.1Z"/>
                <path class="cls-3" d="M24.69,27.74a6.12,6.12,0,0,1,1.17-1.56,10.57,10.57,0,0,1,1.72-1.34A18,18,0,0,1,30,23.58a25.93,25.93,0,0,1,3.16-1.08c1.07-.3,2.22-.55,3.42-.76s2.27-.33,3.46-.43,2.53-.16,3.84-.16,2.74.06,4.05.17,2.51.28,3.68.5a31.39,31.39,0,0,1,3.17.73,25.91,25.91,0,0,1,3,1,16.1,16.1,0,0,1,2.56,1.34,9.54,9.54,0,0,1,1.79,1.44,5.78,5.78,0,0,1,1,1.47,3.73,3.73,0,0,1,.38,1.62,3.85,3.85,0,0,1-.42,1.71A6.07,6.07,0,0,1,62,32.72a10.25,10.25,0,0,1-1.73,1.34,17,17,0,0,1-2.45,1.26,24.33,24.33,0,0,1-3.16,1.08,34.61,34.61,0,0,1-3.42.76c-1.1.19-2.26.34-3.46.44-.93.07-1.89.13-2.87.15,1,0,1.91-.07,2.83-.15,1.18-.1,2.32-.25,3.42-.43s2.32-.46,3.38-.75a25.85,25.85,0,0,0,3.12-1.07,17.6,17.6,0,0,0,2.42-1.24,10.46,10.46,0,0,0,1.7-1.33,5.72,5.72,0,0,0,1.15-1.54,3.8,3.8,0,0,0,.42-1.69,3.69,3.69,0,0,0-.38-1.61,5.37,5.37,0,0,0-1-1.44,10,10,0,0,0-1.76-1.43,16.16,16.16,0,0,0-2.53-1.32,25.39,25.39,0,0,0-3-1c-1-.28-2-.52-3.13-.73s-2.38-.37-3.64-.48-2.63-.18-4-.18-2.56.06-3.79.16-2.33.25-3.42.43a31.77,31.77,0,0,0-3.38.75,24.71,24.71,0,0,0-3.12,1.07A16.55,16.55,0,0,0,27.78,25a10.44,10.44,0,0,0-1.71,1.33,5.78,5.78,0,0,0-1.15,1.54,3.67,3.67,0,0,0,0,3.29,5.64,5.64,0,0,0,1,1.45A10,10,0,0,0,27.66,34a16.28,16.28,0,0,0,2.54,1.32,24.58,24.58,0,0,0,2.94,1c1,.28,2,.52,3.14.72s2.37.38,3.63.49,2.63.18,4,.18c-1.39,0-2.74-.07-4-.18s-2.51-.28-3.68-.49S34,36.64,33,36.36a25.89,25.89,0,0,1-3-1A16.54,16.54,0,0,1,27.47,34a9.9,9.9,0,0,1-1.78-1.45,5.71,5.71,0,0,1-1-1.46,3.93,3.93,0,0,1-.38-1.63A3.85,3.85,0,0,1,24.69,27.74Z"/>
                <path class="cls-15" d="M62.12,24.43a10.67,10.67,0,0,1,2,1.6,6.32,6.32,0,0,1,1.14,1.62,4.38,4.38,0,0,1,.42,1.8,4.26,4.26,0,0,1-.47,1.9,6.73,6.73,0,0,1-1.28,1.72A11.74,11.74,0,0,1,62,34.56,18.45,18.45,0,0,1,59.29,36a28.16,28.16,0,0,1-3.5,1.2c-1.21.34-2.48.61-3.79.84s-2.53.37-3.84.47-2.82.18-4.25.18-3-.07-4.48-.2-2.75-.3-4.07-.54-2.4-.48-3.52-.8A27.17,27.17,0,0,1,28.54,36a17.84,17.84,0,0,1-2.84-1.48,10.28,10.28,0,0,1-2-1.6,6.27,6.27,0,0,1-1.13-1.62,4.05,4.05,0,0,1,0-3.69,6.38,6.38,0,0,1,1.28-1.73,11.19,11.19,0,0,1,1.9-1.48A17.52,17.52,0,0,1,28.54,23a27.61,27.61,0,0,1,3.5-1.2,35.67,35.67,0,0,1,3.79-.83c1.24-.21,2.53-.37,3.83-.48s2.83-.18,4.25-.18,3,.07,4.48.2,2.75.3,4.07.54,2.4.49,3.52.8A27.33,27.33,0,0,1,59.29,23,17.72,17.72,0,0,1,62.12,24.43ZM51.77,21.68c-1.21-.22-2.46-.38-3.74-.5S45.29,21,43.91,21s-2.62.06-3.9.16-2.38.25-3.53.45a33.41,33.41,0,0,0-3.48.76,25.86,25.86,0,0,0-3.22,1.1,18,18,0,0,0-2.49,1.29,10.24,10.24,0,0,0-1.75,1.37,5.92,5.92,0,0,0-1.17,1.58,3.82,3.82,0,0,0-.43,1.74,3.93,3.93,0,0,0,.38,1.65,5.6,5.6,0,0,0,1,1.49,10,10,0,0,0,1.81,1.48,16.64,16.64,0,0,0,2.61,1.36,25.19,25.19,0,0,0,3,1c1,.29,2.11.54,3.23.74s2.47.38,3.75.5,2.73.18,4.11.18,2.62-.06,3.91-.16,2.38-.25,3.52-.44a35.73,35.73,0,0,0,3.49-.77A25.15,25.15,0,0,0,58,35.43a16,16,0,0,0,2.49-1.29,10.21,10.21,0,0,0,1.75-1.36,6.17,6.17,0,0,0,1.18-1.59,3.92,3.92,0,0,0,.43-1.74,3.8,3.8,0,0,0-.39-1.65,5.38,5.38,0,0,0-1-1.49,9.64,9.64,0,0,0-1.81-1.48A17.53,17.53,0,0,0,58,23.47a25,25,0,0,0-3-1C54,22.13,52.89,21.88,51.77,21.68Z"/>
                <path class="cls-3" d="M27.58,24.84l-1.43-.4a17.85,17.85,0,0,1,2.66-1.38l1.22.52A18,18,0,0,0,27.58,24.84Z"/>
                <path class="cls-4" d="M25.86,26.18l-1.59-.28a10.28,10.28,0,0,1,1.88-1.46l1.43.4A10.57,10.57,0,0,0,25.86,26.18Z"/>
                <path class="cls-3" d="M24.69,27.74,23,27.59a6.51,6.51,0,0,1,1.27-1.69l1.59.28A6.12,6.12,0,0,0,24.69,27.74Z"/>
                <path class="cls-4" d="M30,35.32l-1.22.52A18.2,18.2,0,0,1,26,34.38L27.47,34A16.54,16.54,0,0,0,30,35.32Z"/>
                <path class="cls-4" d="M62.14,26.36l1.6-.27a6.05,6.05,0,0,1,1.13,1.59l-1.7.15A5.78,5.78,0,0,0,62.14,26.36Z"/>
                <path class="cls-3" d="M63.13,31.16l1.69.15A6.34,6.34,0,0,1,63.55,33L62,32.72A6.07,6.07,0,0,0,63.13,31.16Z"/>
                <path class="cls-3" d="M63.17,27.83l1.7-.15a4.16,4.16,0,0,1,.41,1.77H63.55A3.73,3.73,0,0,0,63.17,27.83Z"/>
                <path class="cls-4" d="M63.55,29.45h1.73a4.12,4.12,0,0,1-.46,1.86l-1.69-.15A3.85,3.85,0,0,0,63.55,29.45Z"/>
                <path class="cls-4" d="M62,32.72l1.58.29a11.56,11.56,0,0,1-1.87,1.46l-1.44-.41A10.25,10.25,0,0,0,62,32.72Z"/>
                <path class="cls-4" d="M57.79,35.32l1.22.52A29.2,29.2,0,0,1,55.58,37l-.95-.62A24.33,24.33,0,0,0,57.79,35.32Z"/>
                <path class="cls-3" d="M60.24,34.06l1.44.41A19,19,0,0,1,59,35.84l-1.22-.52A17,17,0,0,0,60.24,34.06Z"/>
                <path class="cls-3" d="M54.63,36.4l.95.62c-1.17.32-2.41.59-3.72.82l-.65-.68A34.61,34.61,0,0,0,54.63,36.4Z"/>
                <path class="cls-3" d="M60.35,24.92l1.45-.4a10.52,10.52,0,0,1,1.94,1.57l-1.6.27A9.54,9.54,0,0,0,60.35,24.92Z"/>
                <path class="cls-4" d="M43.91,21.15v-.74c1.51,0,3,.07,4.41.2l-.36.71C46.65,21.21,45.3,21.15,43.91,21.15Z"/>
                <path class="cls-4" d="M51.64,21.82l.68-.68c1.21.23,2.37.49,3.45.8l-1,.61A31.39,31.39,0,0,0,51.64,21.82Z"/>
                <path class="cls-3" d="M48,21.32l.36-.71c1.38.12,2.72.3,4,.53l-.68.68C50.47,21.6,49.24,21.44,48,21.32Z"/>
                <path class="cls-4" d="M57.79,23.58,59,23.06a18.15,18.15,0,0,1,2.79,1.46l-1.45.4A16.1,16.1,0,0,0,57.79,23.58Z"/>
                <path class="cls-3" d="M54.81,22.55l1-.61A29.14,29.14,0,0,1,59,23.06l-1.22.52A25.91,25.91,0,0,0,54.81,22.55Z"/>
                <path class="cls-4" d="M24.69,27.74a3.85,3.85,0,0,0-.42,1.71H22.55A4.24,4.24,0,0,1,23,27.59Z"/>
                <path class="cls-3" d="M24.65,31.08,23,31.22a4.1,4.1,0,0,1-.41-1.77h1.72A3.93,3.93,0,0,0,24.65,31.08Z"/>
                <path class="cls-4" d="M30,23.58l-1.22-.52a27.67,27.67,0,0,1,3.44-1.17l.94.61A25.93,25.93,0,0,0,30,23.58Z"/>
                <path class="cls-4" d="M25.69,32.54l-1.61.27A6.24,6.24,0,0,1,23,31.22l1.69-.14A5.71,5.71,0,0,0,25.69,32.54Z"/>
                <path class="cls-4" d="M51.21,37.16l.65.68c-1.21.2-2.47.36-3.77.47l-.34-.71C49,37.5,50.11,37.35,51.21,37.16Z"/>
                <path class="cls-3" d="M33.19,22.5l-.94-.61A34.63,34.63,0,0,1,36,21.07l.64.67C35.41,22,34.26,22.2,33.19,22.5Z"/>
                <path class="cls-4" d="M36.61,21.74,36,21.07c1.2-.21,2.46-.37,3.77-.48l.33.72C38.88,21.41,37.72,21.55,36.61,21.74Z"/>
                <path class="cls-3" d="M27.47,34,26,34.38a10.87,10.87,0,0,1-1.94-1.57l1.61-.27A9.9,9.9,0,0,0,27.47,34Z"/>
                <path class="cls-4" d="M43.91,37.76v.73c-1.51,0-3-.07-4.4-.2l.36-.71C41.17,37.69,42.52,37.76,43.91,37.76Z"/>
                <path class="cls-3" d="M40.07,21.31l-.33-.72c1.35-.11,2.74-.18,4.17-.18v.74C42.6,21.15,41.32,21.2,40.07,21.31Z"/>
                <path class="cls-3" d="M47.75,37.6l.34.71c-1.35.12-2.75.18-4.18.18v-.73C45.23,37.76,46.51,37.7,47.75,37.6Z"/>
                <path class="cls-3" d="M39.87,37.58l-.36.71c-1.39-.12-2.73-.3-4-.53l.68-.67C37.36,37.3,38.59,37.47,39.87,37.58Z"/>
                <path class="cls-4" d="M36.19,37.09l-.68.67c-1.22-.22-2.37-.49-3.46-.8l1-.6C34,36.64,35.07,36.88,36.19,37.09Z"/>
                <path class="cls-3" d="M33,36.36l-1,.6a27.86,27.86,0,0,1-3.24-1.12L30,35.32A25.89,25.89,0,0,0,33,36.36Z"/>
                <path class="cls-3" d="M68.18,31.09l0,.08Z"/>
                <path class="cls-3" d="M26.53,36.8a20.4,20.4,0,0,1-3.17-1.65A20.4,20.4,0,0,0,26.53,36.8Z"/>
                <path class="cls-3" d="M51.09,39.39c-.66.09-1.33.16-2,.22C49.76,39.55,50.43,39.48,51.09,39.39Z"/>
                <path class="cls-3" d="M52.07,39.26l-.81.11Z"/>
                <path class="cls-3" d="M19.67,27.73v0Z"/>
                <path class="cls-4" d="M63,22.89c.53.28,1,.56,1.48.86C64,23.45,63.51,23.17,63,22.89Z"/>
                <path class="cls-4" d="M62.16,22.49c.26.12.51.24.75.37C62.67,22.73,62.42,22.61,62.16,22.49Z"/>
                <path class="cls-3" d="M67.94,30.72a3.38,3.38,0,0,1-.11.34,3.38,3.38,0,0,0,.11-.34Z"/>
                <path class="cls-3" d="M56.11,38.3c-1,.25-2.08.47-3.19.66C54,38.77,55.09,38.55,56.11,38.3Z"/>
                <path class="cls-3" d="M49,39.46l-.36,0,.36,0Z"/>
                <path class="cls-3" d="M31.72,20.6q1.53-.37,3.18-.66Q33.25,20.22,31.72,20.6Z"/>
                <path class="cls-3" d="M20,27.8c-.05.12-.09.25-.13.38C19.92,28.05,20,27.92,20,27.8Z"/>
                <path class="cls-16" d="M71,34.86l.45-.42a8.92,8.92,0,0,0,1.77-2.38,6,6,0,0,0,.41-1l.44,0a6.72,6.72,0,0,1-.41,1.05,9,9,0,0,1-1.8,2.41l-.46.43Z"/>
                <path class="cls-17" d="M22.71,38.42c.78.33,1.61.64,2.48.93l-.28.14c-.88-.29-1.72-.61-2.51-.94a26.18,26.18,0,0,1-3.93-2l.37-.11A26.37,26.37,0,0,0,22.71,38.42Z"/>
                <path class="cls-18" d="M55.06,41.22c1.37-.23,2.69-.5,3.95-.81l.22.16c-1.28.31-2.61.59-4,.83-1.58.26-3.22.48-4.92.63l-.09-.18C51.89,41.7,53.51,41.49,55.06,41.22Z"/>
                <path class="cls-19" d="M16.34,24.46a9.14,9.14,0,0,0-1.77,2.38,5.92,5.92,0,0,0-.4,1l-.44,0a6.16,6.16,0,0,1,.41-1.05,9,9,0,0,1,1.8-2.41l.45-.42.4.08Z"/>
                <path class="cls-20" d="M32.76,17.68c-1.37.23-2.68.5-3.94.81l-.22-.16c1.27-.31,2.61-.59,4-.83,1.57-.26,3.22-.47,4.91-.63l.1.18C35.94,17.21,34.32,17.42,32.76,17.68Z"/>
                <path class="cls-12" d="M73.66,31a5.64,5.64,0,0,0,.23-1.58A5.87,5.87,0,0,0,73.32,27a8.87,8.87,0,0,0-1.57-2.24A15.15,15.15,0,0,0,69,22.53l0,0,.37-.1,0,0a15.65,15.65,0,0,1,2.76,2.25,8.52,8.52,0,0,1,1.59,2.27,5.87,5.87,0,0,1,.58,2.51,5.78,5.78,0,0,1-.23,1.6Z"/>
                <path class="cls-12" d="M59,40.41l1.28-.34a38.77,38.77,0,0,0,4.82-1.65,26.62,26.62,0,0,0,3.74-1.93A16.94,16.94,0,0,0,71,34.86l.4.08a16.5,16.5,0,0,1-2.21,1.65,26.42,26.42,0,0,1-3.8,2,39.32,39.32,0,0,1-4.89,1.68l-1.3.34Z"/>
                <path class="cls-12" d="M25.19,39.35c.67.23,1.36.44,2.08.65,1.52.43,3.14.8,4.84,1.11s3.67.58,5.62.75,4.06.27,6.18.27,4-.08,5.87-.24l.44,0,.09.18-.45,0c-1.92.16-3.91.25-6,.25s-4.25-.1-6.27-.28-3.88-.43-5.7-.76-3.37-.69-4.92-1.13c-.73-.2-1.43-.42-2.11-.66Z"/>
                <path class="cls-12" d="M13.73,27.85l.44,0a5.36,5.36,0,0,0-.24,1.58,5.74,5.74,0,0,0,.58,2.48,8.62,8.62,0,0,0,1.57,2.24,15.25,15.25,0,0,0,2.72,2.21l0,0-.37.11,0,0a14.92,14.92,0,0,1-2.76-2.24A8.9,8.9,0,0,1,14.07,32a6,6,0,0,1-.58-2.52A5.44,5.44,0,0,1,13.73,27.85Z"/>
                <path class="cls-12" d="M28.82,18.49l-1.28.34a38.92,38.92,0,0,0-4.83,1.66A25,25,0,0,0,19,22.41a16.88,16.88,0,0,0-2.19,1.64l-.4-.08a15.84,15.84,0,0,1,2.22-1.66,25.77,25.77,0,0,1,3.79-2,40.49,40.49,0,0,1,4.89-1.68l1.31-.34Z"/>
                <path class="cls-12" d="M62.64,19.55c-.67-.22-1.36-.44-2.08-.64-1.53-.44-3.15-.81-4.85-1.12S52,17.22,50.09,17s-4.06-.27-6.18-.27-4,.09-5.86.25l-.44,0-.1-.18.45,0c1.93-.16,3.92-.25,5.95-.25s4.25.1,6.27.28,3.89.43,5.7.76a50.2,50.2,0,0,1,4.92,1.13c.73.21,1.43.43,2.12.66Z"/>
                <path class="cls-21" d="M65.11,20.49c-.78-.33-1.61-.65-2.47-.94l.28-.14c.87.29,1.71.61,2.5.94a26.81,26.81,0,0,1,3.94,2l-.37.1A25.09,25.09,0,0,0,65.11,20.49Z"/>
                <path class="cls-3" d="M22,25.08l-.36.34.36-.34Z"/>
                <path class="cls-3" d="M26.79,36.69c.63.27,1.3.52,2,.76C28.09,37.21,27.42,37,26.79,36.69Z"/>
                <path class="cls-4" d="M38.69,40.29c0-.29-.56-.52-1.24-.52s-1.24.23-1.24.52.55.53,1.24.53S38.69,40.58,38.69,40.29Z"/>
                <path class="cls-4" d="M51.26,18.61c0-.29-.55-.53-1.24-.53s-1.24.24-1.24.53.56.52,1.24.52S51.26,18.9,51.26,18.61Z"/>
                <path class="cls-4" d="M71.1,27.48c0-.28-.55-.52-1.24-.52s-1.24.24-1.24.52.56.53,1.24.53S71.1,27.77,71.1,27.48Z"/>
                <path class="cls-4" d="M64.19,37.19c0-.29-.55-.53-1.24-.53s-1.24.24-1.24.53.56.52,1.24.52S64.19,37.47,64.19,37.19Z"/>
                <path class="cls-4" d="M19.56,32c0-.29-.56-.53-1.24-.53s-1.24.24-1.24.53.55.52,1.24.52S19.56,32.31,19.56,32Z"/>
                <path class="cls-4" d="M25.67,22c0-.29-.56-.53-1.24-.53s-1.24.24-1.24.53.55.52,1.24.52S25.67,22.3,25.67,22Z"/>
                <path class="cls-22" d="M27.46,34a10,10,0,0,1-1.78-1.45,5.58,5.58,0,0,1-1-1.47,3.77,3.77,0,0,1-.38-1.62,4,4,0,0,1,.42-1.71,6.18,6.18,0,0,1,1.16-1.56,10.38,10.38,0,0,1,1.72-1.34l.49-.3.16-.09.38-.2.18-.1.51-.25.06,0,.66-.29.75-.3h0l.06,0,.64-.23L31.7,23l.52-.17.22-.07.75-.22a34.32,34.32,0,0,1,3.42-.75c1.13-.19,2.29-.33,3.46-.43s2.56-.16,3.84-.16,2.71.06,4.05.18,2.48.27,3.68.49,2.16.44,3.18.72a26.68,26.68,0,0,1,3,1,16.45,16.45,0,0,1,2.56,1.33,9.7,9.7,0,0,1,1.78,1.45,5.88,5.88,0,0,1,1,1.47,3.71,3.71,0,0,1-.05,3.33A6,6,0,0,1,62,32.72a10.71,10.71,0,0,1-1.71,1.34l-.5.3-.15.09-.39.21-.17.09-.51.25-.73.32a24.91,24.91,0,0,1-3.16,1.09,35,35,0,0,1-3.42.75c-1.13.19-2.29.33-3.47.43s-2.55.16-3.84.16-2.71-.06-4-.18-2.49-.27-3.68-.48S34,36.65,33,36.36a25,25,0,0,1-3-1A16.45,16.45,0,0,1,27.46,34Zm.46-9.36.11-.06Zm.38-.21.27-.15Zm.51-.27.48-.24A4.3,4.3,0,0,0,28.81,24.15Zm2-.9.6-.21Zm.91-.32.37-.12Zm.76-.24.15,0ZM59.9,34.27l-.1.06Zm-.38.22-.27.15Zm-.5.27-.49.24Z"/>
                <path class="cls-3" d="M25.11,27.78a5.81,5.81,0,0,1,1.13-1.53,10.19,10.19,0,0,1,1.69-1.31,16.8,16.8,0,0,1,2.4-1.23,25.36,25.36,0,0,1,3.09-1.06,33.85,33.85,0,0,1,3.35-.74c1.08-.19,2.21-.33,3.38-.43l.83-.06.26,0,.6,0h.27l.77,0H45l.82,0,.29,0,.63,0,.28,0,.86.07c1.25.11,2.46.27,3.6.48s2.13.44,3.11.71a24.86,24.86,0,0,1,2.92,1A16.22,16.22,0,0,1,60,25a9.91,9.91,0,0,1,1.75,1.42,5.68,5.68,0,0,1,1,1.43,3.77,3.77,0,0,1,.37,1.59,3.72,3.72,0,0,1-.41,1.68,6,6,0,0,1-1.14,1.52A10.19,10.19,0,0,1,59.89,34,16.15,16.15,0,0,1,57.5,35.2a26.71,26.71,0,0,1-3.1,1.06c-1,.29-2.17.53-3.34.73s-2.22.33-3.39.43l-.83.06-.25,0-.6,0h-.28l-.76,0h-1q-2,0-4-.18t-3.6-.48c-1.09-.2-2.13-.43-3.1-.71a26.86,26.86,0,0,1-2.92-1,16.78,16.78,0,0,1-2.51-1.31,9.82,9.82,0,0,1-1.74-1.42,5.73,5.73,0,0,1-1-1.43,3.56,3.56,0,0,1,.05-3.26Zm15.63-6.34.17,0Zm.61,0,.43,0Zm.79,0,.73,0Zm2.86,0,.78,0Zm1.16,0,.45,0Zm.92.06h0Zm0,16-.17,0Zm-.62,0-.43,0Zm-.79,0-.73,0Z"/>
                <path class="cls-4" d="M55.23,41.4c1.39-.24,2.72-.52,4-.83v6.61c-1.28.32-2.61.59-4,.83q-2.37.41-4.92.63V42C52,41.88,53.65,41.66,55.23,41.4Z"/>
                <path class="cls-4" d="M74.33,29.45v1.73l-.23-.13A5.78,5.78,0,0,0,74.33,29.45Z"/>
                <path class="cls-4" d="M71.89,34.51a9,9,0,0,0,1.8-2.41,6.72,6.72,0,0,0,.41-1.05l.23.13v4.88a5.73,5.73,0,0,1-.23,1.6,7.24,7.24,0,0,1-.41,1.06,9.34,9.34,0,0,1-1.8,2.41l-.46.42V34.94Z"/>
                <path class="cls-3" d="M60.53,40.23a39.32,39.32,0,0,0,4.89-1.68,26.42,26.42,0,0,0,3.8-2,16.5,16.5,0,0,0,2.21-1.65v6.61a16.54,16.54,0,0,1-2.21,1.66,27.47,27.47,0,0,1-3.8,1.95,39.32,39.32,0,0,1-4.89,1.68l-1.3.34V40.57Z"/>
                <path class="cls-3" d="M13.51,35.6V29.92a6.09,6.09,0,0,0,.56,2,8.9,8.9,0,0,0,1.6,2.27,14.92,14.92,0,0,0,2.76,2.24v6.61a14.53,14.53,0,0,1-2.76-2.24,8.9,8.9,0,0,1-1.6-2.27,5.91,5.91,0,0,1-.58-2.52C13.49,35.91,13.5,35.75,13.51,35.6Z"/>
                <path class="cls-3" d="M27,40.15q2.32.66,4.92,1.13c1.82.33,3.72.59,5.7.76s4.12.28,6.27.28,4-.09,6-.25l.45,0v6.61l-.45,0c-1.92.16-3.91.25-6,.25s-4.25-.1-6.27-.28-3.88-.43-5.7-.76S28.57,47.2,27,46.76c-.73-.2-1.43-.42-2.11-.65V39.49C25.59,39.73,26.29,40,27,40.15Z"/>
                <path class="cls-4" d="M18.47,36.51a26.18,26.18,0,0,0,3.93,2c.79.33,1.63.65,2.51.94v6.62c-.88-.3-1.72-.61-2.51-1a26.18,26.18,0,0,1-3.93-2l0,0V36.48Z"/>
                <polygon class="cls-3" points="62.05 32.34 62.06 32.38 62.05 32.34 62.05 32.34"/>
                <path class="cls-4" d="M19.56,27.1l-.75.37.75-.37Z"/>
                <path class="cls-3" d="M60.2,29.77l.21.21-.21-.21Z"/>
                <path class="cls-3" d="M62.1,32.48c0,.1.07.2.1.29h0c0-.09-.06-.19-.1-.29Z"/>
                <polygon class="cls-5" points="62.05 32.34 62.05 32.36 62.06 32.38 62.05 32.36 62.05 32.34 62.05 32.34"/>
                <path class="cls-3" d="M19.56,27.1h0l-.15.07-.6.3.6-.3.15-.07Z"/>
                <path class="cls-3" d="M66.68,20.09a6.8,6.8,0,0,0-1.38-1.85,11.83,11.83,0,0,0-2-1.59,20.11,20.11,0,0,0-2.9-1.49,30.27,30.27,0,0,0-3.74-1.28,38,38,0,0,0-4.06-.9c-1.31-.22-2.68-.4-4.1-.52l-1-.07-.31,0-.73,0h-.33c-.3,0-.61,0-.92,0h-.11l-1.15,0-1.21,0h-.1l-1,0-.35,0-.76,0-.33,0-1.05.08c-1.52.14-3,.34-4.36.59s-2.58.53-3.76.86a29.07,29.07,0,0,0-3.53,1.23,19.59,19.59,0,0,0-3,1.58,11.32,11.32,0,0,0-2.11,1.72,6.49,6.49,0,0,0-1.23,1.73,4.35,4.35,0,0,0,.05,3.95A7,7,0,0,0,22.52,26a12.44,12.44,0,0,0,2.05,1.59,21.17,21.17,0,0,0,2.9,1.49,29.71,29.71,0,0,0,3.74,1.28,38.34,38.34,0,0,0,4,.9c1.31.22,2.68.4,4.1.52l1,.07.31,0,.73,0h.33l.93,0,1.25,0c1.65,0,3.25-.08,4.8-.22s3-.33,4.36-.58,2.58-.53,3.76-.86a29.68,29.68,0,0,0,3.53-1.23,19.46,19.46,0,0,0,3-1.58,11.09,11.09,0,0,0,2.12-1.72A6.44,6.44,0,0,0,66.73,24a4.39,4.39,0,0,0,.45-1.92A4.45,4.45,0,0,0,66.68,20.09ZM47.76,12.41h0ZM47,12.36l-.52,0Zm-.95,0c-.29,0-.59,0-.88,0C45.47,12.3,45.77,12.3,46.06,12.32Zm-3.47,0-.94,0Zm-1.4.05-.55,0Zm-1.12.07-.21,0Zm0,19.41h0Zm.75.05.53,0Zm1,0,.88,0Z"/>
                <path class="cls-4" d="M21.31,26.2a7.27,7.27,0,0,1-1.45-1.94,5,5,0,0,1-.33-.85l-5.8.31a6.51,6.51,0,0,0,.41,1.05,9.12,9.12,0,0,0,1.8,2.41l.45.42,5.29-1.05Z"/>
                <path class="cls-4" d="M69.36,29.17l-4.89-1.36a20.53,20.53,0,0,1-3.18,1.65c-.64.27-1.32.53-2,.77l3.66,1.93c.87-.3,1.71-.61,2.5-.95A25.87,25.87,0,0,0,69.36,29.17Z"/>
                <path class="cls-4" d="M34.77,31.76c-1.12-.19-2.2-.41-3.23-.66L28.6,33.23c1.27.32,2.61.59,4,.83,1.58.27,3.22.48,4.91.63l1.23-2.41C37.37,32.15,36.05,32,34.77,31.76Z"/>
                <path class="cls-4" d="M66.51,18A7.76,7.76,0,0,1,68,20a6.78,6.78,0,0,1,.33.85l5.8-.31a7.59,7.59,0,0,0-.41-1.05,9.34,9.34,0,0,0-1.8-2.41l-.46-.42-5.29,1.05Z"/>
                <path class="cls-4" d="M53.05,12.46c1.12.19,2.2.42,3.24.67L59.23,11c-1.28-.32-2.61-.6-4-.83-1.58-.27-3.22-.48-4.92-.64L49.08,12C50.45,12.08,51.78,12.25,53.05,12.46Z"/>
                <path class="cls-3" d="M74.1,20.51l-5.8.31h0A7.44,7.44,0,0,0,68,20,7.76,7.76,0,0,0,66.51,18l-.37-.34h0l5.29-1.05A16.54,16.54,0,0,0,69.22,15a26.42,26.42,0,0,0-3.8-2,39.32,39.32,0,0,0-4.89-1.68L59.23,11l-2.94,2.13h0c-1-.25-2.11-.48-3.24-.67s-2.6-.38-4-.51l1.23-2.42-.45,0c-1.92-.16-3.91-.24-6-.24s-4.24.09-6.27.27-3.88.43-5.7.76S28.57,11,27,11.41c-.73.21-1.43.43-2.11.66L28.56,14c-.71.24-1.39.49-2,.76a20.93,20.93,0,0,0-3.21,1.68l0,0-4.89-1.36,0,0a14.53,14.53,0,0,0-2.76,2.24,8.56,8.56,0,0,0-1.6,2.27,5.88,5.88,0,0,0-.58,2.52,5.49,5.49,0,0,0,.24,1.6l5.8-.31h0a6,6,0,0,0,.34.85,7.27,7.27,0,0,0,1.45,1.94l.37.35L16.39,27.6a17.34,17.34,0,0,0,2.22,1.66,25.77,25.77,0,0,0,3.79,1.95,40.49,40.49,0,0,0,4.89,1.68l1.31.34,2.94-2.13c1,.25,2.11.47,3.23.66,1.39.24,2.84.42,4.34.55l-.37,0-1.23,2.41.45,0c1.93.17,3.92.25,5.95.25s4.25-.09,6.27-.27,3.89-.44,5.7-.77,3.38-.69,4.92-1.12c.73-.21,1.43-.43,2.12-.66l-3.66-1.93c.71-.24,1.39-.5,2-.77a20.53,20.53,0,0,0,3.18-1.65l4.89,1.36,0,0a15.18,15.18,0,0,0,2.76-2.24,8.85,8.85,0,0,0,1.59-2.27,5.73,5.73,0,0,0,.35-4.12ZM65.81,17.4l-.13-.11Zm-.92-.7-.53-.36Zm.49.36-.24-.18ZM30.27,13.47l-.88.26ZM19.44,23.06v0Zm-.09-.64v0Zm0,.32v0ZM22,26.83l.13.11Zm.92.7.54.36Zm-.49-.36.25.18Zm35.12,3.59.87-.26Zm4.24-3.71A18.14,18.14,0,0,1,59,28.5a27.21,27.21,0,0,1-3.24,1.13c-1.08.31-2.24.57-3.45.79s-2.62.41-4,.54-2.9.19-4.41.19-2.82-.06-4.18-.17-2.55-.27-3.76-.48a37.22,37.22,0,0,1-3.72-.82,27.64,27.64,0,0,1-3.44-1.18,18.84,18.84,0,0,1-2.66-1.37,11.23,11.23,0,0,1-1.88-1.46A6.68,6.68,0,0,1,23,24a4.28,4.28,0,0,1-.45-1.86A4.1,4.1,0,0,1,23,20.35a6.47,6.47,0,0,1,1.12-1.6A10.87,10.87,0,0,1,26,17.18a19.12,19.12,0,0,1,2.79-1.45,27.85,27.85,0,0,1,3.24-1.13c1.09-.31,2.24-.57,3.46-.79s2.61-.41,4-.54,2.89-.19,4.4-.19,2.83.06,4.18.17,2.56.27,3.77.48a37.85,37.85,0,0,1,3.72.82A27.48,27.48,0,0,1,59,15.73a19.55,19.55,0,0,1,2.67,1.37,11.56,11.56,0,0,1,1.87,1.46,6.3,6.3,0,0,1,1.27,1.69,4.16,4.16,0,0,1,.46,1.87,4.23,4.23,0,0,1-.41,1.76,6.05,6.05,0,0,1-1.13,1.59A10.55,10.55,0,0,1,61.8,27.05Zm6.58-5.93v0Zm.05.3v0Zm0,.31v0Z"/>
                <path class="cls-4" d="M26.53,14.76c.64-.27,1.32-.52,2-.76l-3.65-1.93c-.88.3-1.72.61-2.51.95a25.29,25.29,0,0,0-3.93,2l4.89,1.36A21.31,21.31,0,0,1,26.53,14.76Z"/>
                <path class="cls-3" d="M63.13,20.4A5.87,5.87,0,0,0,62,18.85a10.25,10.25,0,0,0-1.73-1.34,17,17,0,0,0-2.45-1.27,27.76,27.76,0,0,0-3.16-1.08,32,32,0,0,0-3.42-.75c-1.1-.19-2.26-.34-3.46-.44s-2.52-.16-3.84-.16-2.74.06-4,.18-2.5.28-3.67.49-2.18.45-3.18.73a25.91,25.91,0,0,0-3,1,17.46,17.46,0,0,0-2.56,1.34A9.49,9.49,0,0,0,25.69,19a5.54,5.54,0,0,0-1,1.46,3.69,3.69,0,0,0,0,3.34,5.91,5.91,0,0,0,1.17,1.55,10.57,10.57,0,0,0,1.72,1.34A17,17,0,0,0,30,28a27.76,27.76,0,0,0,3.16,1.08c1.07.29,2.22.55,3.42.75s2.27.34,3.46.44c.94.08,1.9.13,2.87.15q-1.44,0-2.82-.15c-1.18-.1-2.33-.24-3.42-.43a31.77,31.77,0,0,1-3.38-.75A24.71,24.71,0,0,1,30.2,28a16.55,16.55,0,0,1-2.42-1.24,10.44,10.44,0,0,1-1.71-1.33,5.78,5.78,0,0,1-1.15-1.54,3.58,3.58,0,0,1,0-3.29,5.64,5.64,0,0,1,1-1.45,10,10,0,0,1,1.76-1.43,17.19,17.19,0,0,1,2.54-1.32,24.58,24.58,0,0,1,2.94-1c1-.28,2-.52,3.14-.72s2.37-.38,3.63-.49,2.63-.17,4-.17,2.57.05,3.8.15,2.32.25,3.42.44a34.49,34.49,0,0,1,3.38.74,25.85,25.85,0,0,1,3.12,1.07,16.56,16.56,0,0,1,2.42,1.25A9.91,9.91,0,0,1,61.75,19a5.72,5.72,0,0,1,1.15,1.54,3.8,3.8,0,0,1,.42,1.69,3.69,3.69,0,0,1-.38,1.61,5.37,5.37,0,0,1-1,1.44,9.2,9.2,0,0,1-1.76,1.43A16.16,16.16,0,0,1,57.63,28a25.37,25.37,0,0,1-3,1c-1,.27-2,.52-3.13.72s-2.38.37-3.64.48-2.63.18-4,.18q2.09,0,4.05-.18c1.28-.11,2.51-.28,3.68-.49s2.17-.45,3.17-.73a25.91,25.91,0,0,0,3-1,17.6,17.6,0,0,0,2.57-1.34,9.9,9.9,0,0,0,1.78-1.45,5.91,5.91,0,0,0,1-1.46,3.69,3.69,0,0,0,0-3.34Z"/>
                <path class="cls-23" d="M25.7,17.09a10.31,10.31,0,0,0-2,1.61,6.11,6.11,0,0,0-1.13,1.62,4.16,4.16,0,0,0-.42,1.8A4.26,4.26,0,0,0,22.65,24a6.35,6.35,0,0,0,1.28,1.72,11.21,11.21,0,0,0,1.9,1.49,19.47,19.47,0,0,0,2.71,1.4,27.61,27.61,0,0,0,3.5,1.2c1.21.33,2.48.61,3.79.83s2.53.37,3.83.48,2.83.17,4.25.17,3-.06,4.48-.19,2.75-.31,4.07-.54,2.4-.49,3.52-.81a29.16,29.16,0,0,0,3.31-1.14,19.19,19.19,0,0,0,2.84-1.48,10.54,10.54,0,0,0,2-1.61,6.15,6.15,0,0,0,1.14-1.62,4.28,4.28,0,0,0,.41-1.79,4.22,4.22,0,0,0-.46-1.9A6.56,6.56,0,0,0,63.9,18.5,10.73,10.73,0,0,0,62,17a19.47,19.47,0,0,0-2.71-1.4,28.16,28.16,0,0,0-3.5-1.2c-1.21-.33-2.48-.61-3.79-.83s-2.53-.37-3.84-.48-2.82-.18-4.25-.18-3,.07-4.48.2-2.75.3-4.07.54-2.4.49-3.52.81a29,29,0,0,0-3.3,1.14A18.71,18.71,0,0,0,25.7,17.09Zm10.35-2.74c1.21-.22,2.47-.39,3.75-.5s2.73-.18,4.11-.18,2.62.05,3.91.16,2.38.25,3.52.44,2.38.46,3.49.76A26.8,26.8,0,0,1,58,16.14a16.93,16.93,0,0,1,2.49,1.28,10.76,10.76,0,0,1,1.75,1.37,6,6,0,0,1,1.18,1.58,4,4,0,0,1,.43,1.75,3.83,3.83,0,0,1-.39,1.65,5.69,5.69,0,0,1-1,1.49,9.61,9.61,0,0,1-1.81,1.47A16.64,16.64,0,0,1,58,28.09a25,25,0,0,1-3,1.05,32,32,0,0,1-3.24.74c-1.21.22-2.46.39-3.74.5s-2.74.18-4.12.18-2.61,0-3.9-.16-2.38-.25-3.53-.44A33.4,33.4,0,0,1,33,29.19a25.86,25.86,0,0,1-3.22-1.1,17.45,17.45,0,0,1-2.49-1.28,10.76,10.76,0,0,1-1.75-1.37,6,6,0,0,1-1.17-1.59,3.78,3.78,0,0,1-.43-1.73,3.83,3.83,0,0,1,.38-1.66,5.93,5.93,0,0,1,1-1.49,10,10,0,0,1,1.81-1.47,16.64,16.64,0,0,1,2.61-1.36,25.19,25.19,0,0,1,3-1.05A31.15,31.15,0,0,1,36.05,14.35Z"/>
                <path class="cls-3" d="M60.24,17.51l1.44-.41A19.55,19.55,0,0,0,59,15.73l-1.22.51A17,17,0,0,1,60.24,17.51Z"/>
                <path class="cls-4" d="M62,18.85l1.58-.29a11.56,11.56,0,0,0-1.87-1.46l-1.44.41A10.25,10.25,0,0,1,62,18.85Z"/>
                <path class="cls-3" d="M63.13,20.4l1.69-.15a6.3,6.3,0,0,0-1.27-1.69L62,18.85A5.87,5.87,0,0,1,63.13,20.4Z"/>
                <path class="cls-4" d="M57.79,28,59,28.5a18.14,18.14,0,0,0,2.79-1.45l-1.44-.4A17.6,17.6,0,0,1,57.79,28Z"/>
                <path class="cls-4" d="M25.69,19l-1.61-.28A6.47,6.47,0,0,0,23,20.35l1.69.14A5.54,5.54,0,0,1,25.69,19Z"/>
                <path class="cls-3" d="M24.69,23.83,23,24a6.68,6.68,0,0,0,1.27,1.69l1.59-.29A5.91,5.91,0,0,1,24.69,23.83Z"/>
                <path class="cls-3" d="M24.65,20.49,23,20.35a4.1,4.1,0,0,0-.41,1.77h1.72A3.93,3.93,0,0,1,24.65,20.49Z"/>
                <path class="cls-4" d="M24.27,22.12H22.55A4.28,4.28,0,0,0,23,24l1.69-.15A3.92,3.92,0,0,1,24.27,22.12Z"/>
                <path class="cls-4" d="M25.86,25.38l-1.59.29a11.23,11.23,0,0,0,1.88,1.46l1.43-.41A10.57,10.57,0,0,1,25.86,25.38Z"/>
                <path class="cls-4" d="M30,28l-1.22.51a27.64,27.64,0,0,0,3.44,1.18l.94-.61A27.76,27.76,0,0,1,30,28Z"/>
                <path class="cls-3" d="M27.58,26.72l-1.43.41a18.84,18.84,0,0,0,2.66,1.37L30,28A17,17,0,0,1,27.58,26.72Z"/>
                <path class="cls-3" d="M33.19,29.07l-.94.61A37.22,37.22,0,0,0,36,30.5l.64-.68C35.41,29.62,34.26,29.36,33.19,29.07Z"/>
                <path class="cls-3" d="M27.47,17.58,26,17.18a10.87,10.87,0,0,0-1.94,1.57l1.61.28A9.49,9.49,0,0,1,27.47,17.58Z"/>
                <path class="cls-4" d="M43.91,13.81v-.73c-1.51,0-3,.07-4.4.19l.35.72C41.17,13.87,42.53,13.81,43.91,13.81Z"/>
                <path class="cls-4" d="M36.19,14.48l-.68-.67c-1.22.22-2.37.48-3.46.79l1,.61C34,14.93,35.07,14.68,36.19,14.48Z"/>
                <path class="cls-3" d="M39.86,14l-.35-.72c-1.39.13-2.73.31-4,.54l.68.67C37.36,14.27,38.59,14.1,39.86,14Z"/>
                <path class="cls-4" d="M30,16.24l-1.22-.51A19.12,19.12,0,0,0,26,17.18l1.45.4A17.46,17.46,0,0,1,30,16.24Z"/>
                <path class="cls-3" d="M33,15.21l-1-.61a27.85,27.85,0,0,0-3.24,1.13l1.22.51A25.91,25.91,0,0,1,33,15.21Z"/>
                <path class="cls-4" d="M63.13,20.4a3.8,3.8,0,0,1,.42,1.72h1.73a4.16,4.16,0,0,0-.46-1.87Z"/>
                <path class="cls-3" d="M63.17,23.74l1.7.14a4.23,4.23,0,0,0,.41-1.76H63.55A3.77,3.77,0,0,1,63.17,23.74Z"/>
                <path class="cls-4" d="M57.79,16.24,59,15.73a27.48,27.48,0,0,0-3.43-1.18l-.95.61A27.76,27.76,0,0,1,57.79,16.24Z"/>
                <path class="cls-4" d="M62.14,25.2l1.6.27a6.05,6.05,0,0,0,1.13-1.59l-1.7-.14A5.91,5.91,0,0,1,62.14,25.2Z"/>
                <path class="cls-4" d="M36.61,29.82,36,30.5c1.21.21,2.46.37,3.76.48l.34-.72C38.88,30.16,37.72,30,36.61,29.82Z"/>
                <path class="cls-3" d="M54.63,15.16l.95-.61a37.85,37.85,0,0,0-3.72-.82l-.65.68A32,32,0,0,1,54.63,15.16Z"/>
                <path class="cls-4" d="M51.21,14.41l.65-.68c-1.21-.21-2.47-.37-3.77-.48l-.34.72C49,14.07,50.11,14.22,51.21,14.41Z"/>
                <path class="cls-3" d="M60.36,26.65l1.44.4a10.55,10.55,0,0,0,1.94-1.58l-1.6-.27A9.9,9.9,0,0,1,60.36,26.65Z"/>
                <path class="cls-4" d="M43.91,30.42v.73c1.51,0,3-.07,4.41-.19L48,30.24Q46,30.42,43.91,30.42Z"/>
                <path class="cls-3" d="M47.75,14l.34-.72c-1.35-.11-2.75-.17-4.18-.17v.73C45.23,13.81,46.51,13.86,47.75,14Z"/>
                <path class="cls-3" d="M40.07,30.26l-.34.72c1.36.11,2.75.17,4.18.17v-.73C42.6,30.42,41.32,30.36,40.07,30.26Z"/>
                <path class="cls-3" d="M48,30.24l.36.72c1.38-.13,2.72-.31,4-.54l-.68-.67C50.47,30,49.24,30.13,48,30.24Z"/>
                <path class="cls-4" d="M51.64,29.75l.68.67c1.21-.22,2.37-.48,3.45-.79l-1-.61C53.81,29.3,52.75,29.55,51.64,29.75Z"/>
                <path class="cls-3" d="M54.81,29l1,.61A27.21,27.21,0,0,0,59,28.5L57.79,28A25.91,25.91,0,0,1,54.81,29Z"/>
                <path class="cls-3" d="M19.64,23.75l0,.08Z"/>
                <path class="cls-3" d="M61.29,29.46a20.53,20.53,0,0,0,3.18-1.65A20.53,20.53,0,0,1,61.29,29.46Z"/>
                <path class="cls-3" d="M36.74,32.06l2,.22Z"/>
                <path class="cls-3" d="M35.76,31.92l.8.11Z"/>
                <path class="cls-3" d="M68.15,20.39l0,0Z"/>
                <path class="cls-4" d="M24.85,15.56c-.53.27-1,.56-1.49.85C23.82,16.12,24.32,15.83,24.85,15.56Z"/>
                <path class="cls-4" d="M25.66,15.15l-.75.37Z"/>
                <path class="cls-3" d="M19.88,23.39a2.79,2.79,0,0,0,.12.34,2.79,2.79,0,0,1-.12-.34Z"/>
                <path class="cls-3" d="M31.72,31q1.53.39,3.18.66Q33.25,31.35,31.72,31Z"/>
                <path class="cls-3" d="M38.82,32.13l.36,0-.36,0Z"/>
                <path class="cls-3" d="M56.11,13.26c-1-.25-2.08-.47-3.19-.66C54,12.79,55.09,13,56.11,13.26Z"/>
                <path class="cls-3" d="M67.81,20.46a2.84,2.84,0,0,1,.13.38A2.84,2.84,0,0,0,67.81,20.46Z"/>
                <path class="cls-24" d="M16.79,27.52l-.44-.42a8.92,8.92,0,0,1-1.78-2.37,7,7,0,0,1-.41-1l-.43,0a6.51,6.51,0,0,0,.41,1.05,9.12,9.12,0,0,0,1.8,2.41l.45.42Z"/>
                <path class="cls-25" d="M65.11,31.08c-.78.33-1.61.64-2.47.93l.28.15c.87-.3,1.71-.61,2.5-.95a25.87,25.87,0,0,0,3.94-2l-.37-.1A26,26,0,0,1,65.11,31.08Z"/>
                <path class="cls-26" d="M32.76,33.89c-1.37-.23-2.68-.51-3.94-.82l-.22.16c1.27.32,2.61.59,4,.83,1.58.27,3.22.48,4.91.63l.1-.18C35.94,34.36,34.32,34.15,32.76,33.89Z"/>
                <path class="cls-27" d="M71.48,17.12a8.86,8.86,0,0,1,1.77,2.38,6.07,6.07,0,0,1,.41,1l.44,0a7.59,7.59,0,0,0-.41-1.05,9.34,9.34,0,0,0-1.8-2.41l-.46-.42-.4.08C71.18,16.85,71.34,17,71.48,17.12Z"/>
                <path class="cls-28" d="M55.06,10.34c1.37.23,2.69.51,3.95.82l.22-.16c-1.28-.32-2.61-.6-4-.83-1.58-.27-3.22-.48-4.92-.64l-.09.19C51.89,9.87,53.51,10.08,55.06,10.34Z"/>
                <path class="cls-12" d="M14.16,23.69a5.57,5.57,0,0,1-.23-1.57,5.74,5.74,0,0,1,.58-2.48,8.3,8.3,0,0,1,1.57-2.24,14.43,14.43,0,0,1,2.72-2.21l0,0-.37-.1,0,0a14.53,14.53,0,0,0-2.76,2.24,8.56,8.56,0,0,0-1.6,2.27,5.88,5.88,0,0,0-.58,2.52,5.49,5.49,0,0,0,.24,1.6Z"/>
                <path class="cls-12" d="M28.82,33.07l-1.28-.33a41.27,41.27,0,0,1-4.83-1.66A25,25,0,0,1,19,29.15a16.84,16.84,0,0,1-2.19-1.63l-.4.08a17.34,17.34,0,0,0,2.22,1.66,25.77,25.77,0,0,0,3.79,1.95,40.49,40.49,0,0,0,4.89,1.68l1.31.34Z"/>
                <path class="cls-12" d="M62.64,32c-.67.23-1.36.45-2.08.65-1.53.43-3.15.8-4.85,1.11s-3.67.58-5.62.75-4.06.27-6.18.27-4-.08-5.86-.24l-.44,0-.1.18.45,0c1.93.17,3.92.25,5.95.25s4.25-.09,6.27-.27,3.89-.44,5.7-.77,3.38-.69,4.92-1.12c.73-.21,1.43-.43,2.12-.66Z"/>
                <path class="cls-12" d="M74.1,20.51l-.44,0a5.59,5.59,0,0,1,.23,1.58,5.86,5.86,0,0,1-.57,2.47,8.46,8.46,0,0,1-1.57,2.24A14.76,14.76,0,0,1,69,29l0,0,.37.1,0,0a15.18,15.18,0,0,0,2.76-2.24,8.85,8.85,0,0,0,1.59-2.27,5.73,5.73,0,0,0,.35-4.12Z"/>
                <path class="cls-12" d="M59,11.16l1.28.33a38.75,38.75,0,0,1,4.82,1.66,26.61,26.61,0,0,1,3.74,1.92A16.1,16.1,0,0,1,71,16.71l.4-.08A16.54,16.54,0,0,0,69.22,15a26.42,26.42,0,0,0-3.8-2,39.32,39.32,0,0,0-4.89-1.68L59.23,11Z"/>
                <path class="cls-12" d="M25.19,12.22c.67-.23,1.36-.45,2.08-.65a49.24,49.24,0,0,1,4.84-1.11c1.79-.33,3.67-.58,5.62-.75s4.06-.27,6.18-.27,4,.08,5.87.24l.44,0,.09-.19-.45,0c-1.92-.16-3.91-.24-6-.24s-4.24.09-6.27.27-3.88.43-5.7.76S28.57,11,27,11.41c-.73.21-1.43.43-2.11.66Z"/>
                <path class="cls-29" d="M22.71,13.15c.78-.33,1.61-.64,2.48-.93l-.28-.15c-.88.3-1.72.61-2.51.95a25.29,25.29,0,0,0-3.93,2l.37.1A26.36,26.36,0,0,1,22.71,13.15Z"/>
                <path class="cls-3" d="M65.82,17.75l.36.33-.36-.33Z"/>
                <path class="cls-3" d="M61,29.36c-.63.26-1.3.51-2,.75C59.74,29.87,60.41,29.62,61,29.36Z"/>
                <path class="cls-4" d="M49.14,33c0-.29.55-.53,1.24-.53s1.24.24,1.24.53-.56.52-1.24.52S49.14,33.25,49.14,33Z"/>
                <path class="cls-4" d="M36.56,11.27c0-.29.56-.52,1.24-.52S39,11,39,11.27s-.55.52-1.24.52S36.56,11.56,36.56,11.27Z"/>
                <path class="cls-4" d="M16.72,20.15c0-.29.56-.53,1.24-.53s1.24.24,1.24.53-.55.52-1.24.52S16.72,20.44,16.72,20.15Z"/>
                <path class="cls-4" d="M23.63,29.85c0-.29.56-.53,1.24-.53s1.24.24,1.24.53-.55.52-1.24.52S23.63,30.14,23.63,29.85Z"/>
                <path class="cls-4" d="M68.27,24.68c0-.29.55-.52,1.24-.52s1.24.23,1.24.52-.56.52-1.24.52S68.27,25,68.27,24.68Z"/>
                <path class="cls-4" d="M62.16,14.68c0-.29.55-.52,1.24-.52s1.24.23,1.24.52-.56.52-1.24.52S62.16,15,62.16,14.68Z"/>
                <path class="cls-30" d="M60.36,26.65a9.31,9.31,0,0,0,1.78-1.45,5.66,5.66,0,0,0,1-1.46,4,4,0,0,0,.37-1.62,3.86,3.86,0,0,0-.42-1.72A5.76,5.76,0,0,0,62,18.85a9.8,9.8,0,0,0-1.71-1.35l-.5-.29-.15-.09-.39-.21L59,16.82l-.51-.25-.06,0-.67-.3-.74-.3h0l-.07,0-.63-.23-.23-.08-.52-.17-.23-.07-.74-.21a34.51,34.51,0,0,0-3.43-.76c-1.12-.18-2.28-.33-3.46-.43s-2.55-.16-3.84-.16-2.71.06-4,.18-2.49.28-3.68.49-2.17.44-3.18.73a23.64,23.64,0,0,0-3,1,16.14,16.14,0,0,0-2.57,1.34A9.56,9.56,0,0,0,25.68,19a5.38,5.38,0,0,0-1,1.46,3.84,3.84,0,0,0-.38,1.63,4,4,0,0,0,.42,1.71,6,6,0,0,0,1.16,1.55,9.9,9.9,0,0,0,1.72,1.35l.49.29.16.09.38.21.18.09c.16.09.33.17.51.25L30,28a26.58,26.58,0,0,0,3.16,1.08,35,35,0,0,0,3.42.75c1.13.19,2.29.34,3.46.44s2.56.16,3.84.16,2.71-.06,4.05-.18,2.48-.28,3.68-.49,2.16-.44,3.18-.73a26.68,26.68,0,0,0,3-1A17.35,17.35,0,0,0,60.36,26.65Zm-.46-9.36-.1-.06Zm-.38-.21-.27-.15Zm-.5-.27-.49-.24Zm-2-.89-.61-.22Zm-.91-.32-.37-.12Zm-.76-.25-.15,0ZM27.92,26.93,28,27Zm.38.22.28.15Zm.51.27.48.24Z"/>
                <path class="cls-4" d="M65.71,20.17a6.81,6.81,0,0,0-1.32-1.76,11.66,11.66,0,0,0-2-1.52,18.51,18.51,0,0,0-2.78-1.43,29.34,29.34,0,0,0-3.58-1.23c-1.22-.34-2.51-.62-3.88-.86s-2.57-.38-3.92-.49l-1-.07-.3,0-.69,0H46l-.89,0H42.66l-.95,0-.33,0-.74,0-.31,0-1,.08c-1.44.13-2.84.31-4.17.56s-2.47.5-3.6.82a29.61,29.61,0,0,0-3.38,1.18A19.12,19.12,0,0,0,25.27,17a11.59,11.59,0,0,0-2,1.64,6.55,6.55,0,0,0-1.17,1.66,4.32,4.32,0,0,0-.43,1.85,4.38,4.38,0,0,0,.48,1.94,6.59,6.59,0,0,0,1.32,1.76,11.77,11.77,0,0,0,2,1.52,18.84,18.84,0,0,0,2.77,1.43A29.94,29.94,0,0,0,31.75,30a38.28,38.28,0,0,0,3.88.85c1.26.22,2.57.39,3.93.5l.95.07.3,0,.7,0h.32l.88,0h1.2c1.58,0,3.11-.07,4.59-.2s2.84-.32,4.17-.56a35.3,35.3,0,0,0,3.6-.83,27.23,27.23,0,0,0,3.38-1.17,19.74,19.74,0,0,0,2.91-1.51,11.88,11.88,0,0,0,2-1.64A6.3,6.3,0,0,0,65.75,24a4.31,4.31,0,0,0,.43-1.84A4.37,4.37,0,0,0,65.71,20.17ZM47.59,12.83l-.2,0Zm-.71-.05-.5,0Zm-.91,0-.85,0Zm-3.32,0-.9,0Zm-1.34,0-.53,0Zm-1.07.07h0Zm0,18.57.2,0Zm.71.05.51,0Zm.92,0,.85,0Z"/>
                <path class="cls-4" d="M32.6,34.06c-1.39-.24-2.73-.51-4-.83v6.61c1.27.32,2.61.6,4,.83,1.58.27,3.22.48,4.91.64V34.69C35.82,34.54,34.18,34.33,32.6,34.06Z"/>
                <path class="cls-4" d="M13.49,22.12v1.73l.24-.13A5.49,5.49,0,0,1,13.49,22.12Z"/>
                <path class="cls-4" d="M15.94,27.18a9.12,9.12,0,0,1-1.8-2.41,6.51,6.51,0,0,1-.41-1.05l-.24.13v4.88a5.49,5.49,0,0,0,.24,1.6,6.51,6.51,0,0,0,.41,1.05,9.12,9.12,0,0,0,1.8,2.41l.45.42V27.6Z"/>
                <path class="cls-3" d="M27.29,32.89a40.49,40.49,0,0,1-4.89-1.68,25.77,25.77,0,0,1-3.79-1.95,17.34,17.34,0,0,1-2.22-1.66v6.61a17.34,17.34,0,0,0,2.22,1.66,25.77,25.77,0,0,0,3.79,2,38.82,38.82,0,0,0,4.89,1.68l1.31.34V33.23Z"/>
                <path class="cls-3" d="M74.31,28.26V22.58a5.87,5.87,0,0,1-.56,2.05,8.85,8.85,0,0,1-1.59,2.27,15.18,15.18,0,0,1-2.76,2.24v6.61a15.18,15.18,0,0,0,2.76-2.24,8.52,8.52,0,0,0,1.59-2.27,5.87,5.87,0,0,0,.58-2.51A3.7,3.7,0,0,0,74.31,28.26Z"/>
                <path class="cls-3" d="M60.8,32.82c-1.54.43-3.19.81-4.92,1.12s-3.72.59-5.7.77-4.12.27-6.27.27-4-.08-5.95-.25l-.45,0v6.62l.45,0c1.93.16,3.92.24,5.95.24s4.25-.09,6.27-.27,3.89-.43,5.7-.76,3.38-.69,4.92-1.13c.73-.21,1.43-.43,2.12-.66V32.16C62.23,32.39,61.53,32.61,60.8,32.82Z"/>
                <path class="cls-4" d="M69.36,29.17a25.87,25.87,0,0,1-3.94,2c-.79.34-1.63.65-2.5.95v6.61c.87-.3,1.71-.61,2.5-1a25.87,25.87,0,0,0,3.94-2l0,0V29.14Z"/>
                <g class="cls-31">
                    <text class="cls-32" transform="translate(34.62 30.3) scale(1.01 1)">50</text>
                </g>
                <text class="cls-33" transform="translate(34.15 29.82) scale(1.01 1)">50</text>
            </g>
        </g>
    </g>
</svg>