<svg width="7" height="9" viewBox="0 0 7 9" fill="none" xmlns="http://www.w3.org/2000/svg">
<path d="M1.29982 8.02371V7.72371C2.69982 7.52371 3.69983 6.52371 3.99983 4.82371C3.69983 5.12371 3.19983 5.22371 2.99983 5.22371C1.19983 5.32371 0.199815 4.42371 0.299815 2.92371C0.299815 1.42371 1.4998 0.423706 3.0998 0.423706C4.4998 0.423706 5.89983 1.32371 5.99983 3.02371C6.19983 6.32371 3.79982 8.02371 1.29982 8.02371ZM3.99983 2.62371C3.79983 1.32371 3.0998 0.723708 2.5998 0.823708C1.9998 0.923708 1.79983 1.62371 1.99983 2.92371C2.19983 4.22371 2.79985 4.72371 3.39985 4.72371C3.89985 4.72371 4.19983 3.92371 3.99983 2.62371Z" fill="#0066CB"/>
</svg>
