<svg width="7" height="9" viewBox="0 0 7 9" fill="none" xmlns="http://www.w3.org/2000/svg">
<path d="M6.59992 5.72371C6.49992 7.32371 4.99992 8.02371 3.59992 8.02371C2.39992 8.02371 1.19991 7.52371 0.899908 6.52371C0.699908 5.62371 1.19991 5.02371 1.89991 5.02371C2.69991 5.02371 2.99991 5.52371 2.99991 5.92371C2.49991 5.82371 2.09993 6.12371 2.19993 6.82371C2.29993 7.32371 2.89991 7.62371 3.39991 7.52371C4.29991 7.42371 4.69993 6.82371 4.69993 5.52371C4.69993 4.82371 4.39991 3.82371 2.89991 3.82371V3.62371L4.59992 1.82371H2.49991C1.99991 1.82371 1.59991 1.92371 1.49991 2.32371H1.19993L1.39991 0.423706H6.19993V1.02371L3.89991 3.32371C5.59991 3.42371 6.69992 4.42371 6.59992 5.72371Z" fill="#0066CB"/>
</svg>
