<svg width="6" height="9" viewBox="0 0 6 9" fill="none" xmlns="http://www.w3.org/2000/svg">
<path d="M5.49982 8.02371H0.299805C0.299805 6.92371 0.599805 5.82371 1.7998 4.92371C3.0998 4.02371 3.39982 3.32371 3.59982 2.72371C3.89982 1.72371 3.6998 0.823708 2.7998 0.823708C2.1998 0.823708 1.79983 1.12371 1.69983 1.62371C1.59983 2.32371 1.99982 2.62371 2.49982 2.52371C2.49982 2.92371 2.19981 3.42371 1.39981 3.42371C0.599811 3.42371 0.199811 2.82371 0.399811 1.92371C0.599811 1.02371 1.5998 0.423706 2.7998 0.423706C4.1998 0.423706 5.59982 1.02371 5.59982 2.42371C5.59982 3.82371 4.29983 4.42371 3.19983 4.92371C2.19983 5.42371 1.29982 5.82371 0.999817 6.62371H3.49982C4.39982 6.62371 4.99981 6.42371 5.39981 5.42371H5.69983L5.49982 8.02371Z" fill="#0066CB"/>
</svg>
