<svg width="7" height="9" viewBox="0 0 7 9" fill="none" xmlns="http://www.w3.org/2000/svg">
<path d="M6.69965 6.0238C6.69965 7.1238 5.89965 8.1238 3.69965 8.1238C1.99965 8.1238 0.599609 7.4238 0.599609 6.3238C0.599609 5.4238 1.19966 4.7238 2.39966 4.4238C1.49966 3.9238 0.899658 3.2238 0.899658 2.5238C0.899658 1.1238 2.09961 0.523804 3.59961 0.523804C5.09961 0.523804 6.19965 1.1238 6.19965 2.4238C6.19965 3.1238 5.69966 3.7238 4.89966 4.0238C6.09966 4.4238 6.69965 5.1238 6.69965 6.0238ZM4.69965 6.3238C4.49965 5.3238 3.19962 4.7238 2.79962 4.6238C1.59962 5.6238 2.29961 7.7238 3.59961 7.7238C4.19961 7.7238 4.89965 7.3238 4.69965 6.3238ZM3.59961 0.823803C3.09961 0.823803 2.69962 1.3238 2.79962 1.8238C2.89962 2.7238 3.69961 3.3238 4.59961 3.7238C4.99961 2.9238 4.99961 0.723803 3.59961 0.823803Z" fill="#0066CB"/>
</svg>
