<svg width="7" height="9" viewBox="0 0 7 9" fill="none" xmlns="http://www.w3.org/2000/svg">
<path d="M6.70007 5.52371C6.70007 7.02371 5.50008 8.02371 3.90008 8.02371C2.50008 8.02371 1.10006 7.12371 1.00006 5.42371C0.700055 2.12371 3.10007 0.423706 5.70007 0.423706V0.723705C4.30007 1.02371 3.30006 1.92371 3.00006 3.62371C3.30006 3.32371 3.80006 3.22371 4.00006 3.22371C5.80006 3.12371 6.80007 4.02371 6.70007 5.52371ZM4.90008 5.52371C4.70008 4.22371 4.10006 3.62371 3.50006 3.72371C2.90006 3.82371 2.60008 4.52371 2.90008 5.82371C3.10008 7.12371 3.80004 7.72371 4.30004 7.62371C4.90004 7.52371 5.10008 6.82371 4.90008 5.52371Z" fill="#0066CB"/>
</svg>
